<svg width="42" height="42" viewBox="0 0 42 42" fill="none" xmlns="http://www.w3.org/2000/svg">
<circle cx="21" cy="21" r="21" fill="#00B386" fill-opacity="0.1"/>
<path fill-rule="evenodd" clip-rule="evenodd" d="M12 9.98781C12 9.44226 12.4423 9 12.9878 9H29.0122C29.5577 9 30 9.44226 30 9.9878V32.378C30 32.9236 29.5577 33.3659 29.0122 33.3659H12.9878C12.4423 33.3659 12 32.9236 12 32.378V9.98781ZM12.9878 9.65854C12.806 9.65854 12.6585 9.80596 12.6585 9.98781V32.378C12.6585 32.5599 12.806 32.7073 12.9878 32.7073H29.0122C29.194 32.7073 29.3415 32.5599 29.3415 32.378V9.9878C29.3415 9.80595 29.194 9.65854 29.0122 9.65854H12.9878ZM16.2805 12.1829C16.0986 12.1829 15.9512 12.3303 15.9512 12.5122V21.8415C15.9512 22.0233 16.0986 22.1707 16.2805 22.1707H17.8171V20.0854C17.8171 19.1638 18.2245 18.4631 18.8364 18.0012C19.106 17.7977 19.4126 17.6421 19.7384 17.532C19.418 17.3469 19.1567 17.1247 18.9537 16.874C18.5387 16.3615 18.3863 15.7529 18.4501 15.164C18.5766 13.9957 19.5482 12.9183 20.9574 12.7345L20.9677 12.7331L20.9781 12.7324C22.8136 12.6101 23.8996 13.8544 23.963 15.1838C23.9945 15.8429 23.7742 16.5205 23.2767 17.0472C23.0685 17.2677 22.8154 17.458 22.5184 17.6088C22.7719 17.7105 23.0113 17.8402 23.228 17.9984C23.8608 18.4604 24.2927 19.1639 24.2927 20.0854V22.1707H25.7195C25.9014 22.1707 26.0488 22.0233 26.0488 21.8415V12.5122C26.0488 12.3303 25.9014 12.1829 25.7195 12.1829H16.2805ZM23.6341 22.1707V20.0854C23.6341 19.3953 23.3205 18.8813 22.8397 18.5302C22.3498 18.1726 21.6811 17.983 21.0015 17.9861C20.3388 17.9892 19.6989 18.1752 19.2332 18.5268C18.7772 18.871 18.4756 19.3813 18.4756 20.0854V22.1707H23.6341ZM21.027 17.3254C21.8655 17.27 22.4392 16.975 22.7979 16.5951C23.1649 16.2065 23.3287 15.7068 23.3053 15.2152C23.259 14.2455 22.4828 13.2969 21.0323 13.3888C19.9229 13.5381 19.1975 14.3789 19.1048 15.2349C19.0588 15.6596 19.1671 16.0911 19.4655 16.4596C19.7596 16.8228 20.2568 17.1467 21.027 17.3254ZM15.2927 12.5122C15.2927 11.9666 15.7349 11.5244 16.2805 11.5244H25.7195C26.2651 11.5244 26.7073 11.9666 26.7073 12.5122V21.8415C26.7073 22.387 26.2651 22.8293 25.7195 22.8293H16.2805C15.7349 22.8293 15.2927 22.387 15.2927 21.8415V12.5122ZM13.7561 25.5732C13.7561 25.3913 13.9035 25.2439 14.0854 25.2439H28.0244C28.2062 25.2439 28.3537 25.3913 28.3537 25.5732C28.3537 25.755 28.2062 25.9024 28.0244 25.9024H14.0854C13.9035 25.9024 13.7561 25.755 13.7561 25.5732ZM13.7561 27.5488C13.7561 27.3669 13.9035 27.2195 14.0854 27.2195H28.0244C28.2062 27.2195 28.3537 27.3669 28.3537 27.5488C28.3537 27.7306 28.2062 27.878 28.0244 27.878H14.0854C13.9035 27.878 13.7561 27.7306 13.7561 27.5488ZM13.7561 28.9756C13.7561 28.7938 13.9035 28.6463 14.0854 28.6463H28.0244C28.2062 28.6463 28.3537 28.7938 28.3537 28.9756C28.3537 29.1575 28.2062 29.3049 28.0244 29.3049H14.0854C13.9035 29.3049 13.7561 29.1575 13.7561 28.9756ZM13.7561 30.5122C13.7561 30.3303 13.9035 30.1829 14.0854 30.1829H28.0244C28.2062 30.1829 28.3537 30.3303 28.3537 30.5122C28.3537 30.694 28.2062 30.8415 28.0244 30.8415H14.0854C13.9035 30.8415 13.7561 30.694 13.7561 30.5122Z" fill="#00B386"/>
<path d="M28.1361 21.404C28.1361 23.2225 26.662 24.6967 24.8435 24.6967C23.025 24.6967 21.5508 23.2225 21.5508 21.404C21.5508 19.5855 23.025 18.1113 24.8435 18.1113C26.662 18.1113 28.1361 19.5855 28.1361 21.404Z" fill="white"/>
<path fill-rule="evenodd" clip-rule="evenodd" d="M24.8435 24.0382C26.2983 24.0382 27.4776 22.8588 27.4776 21.404C27.4776 19.9492 26.2983 18.7699 24.8435 18.7699C23.3887 18.7699 22.2093 19.9492 22.2093 21.404C22.2093 22.8588 23.3887 24.0382 24.8435 24.0382ZM24.8435 24.6967C26.662 24.6967 28.1361 23.2225 28.1361 21.404C28.1361 19.5855 26.662 18.1113 24.8435 18.1113C23.025 18.1113 21.5508 19.5855 21.5508 21.404C21.5508 23.2225 23.025 24.6967 24.8435 24.6967Z" fill="#00B386"/>
<path fill-rule="evenodd" clip-rule="evenodd" d="M26.6066 20.0668C26.7387 20.1919 26.7443 20.4003 26.6192 20.5323L24.426 22.8474L23.3097 21.8707C23.1729 21.751 23.159 21.5429 23.2787 21.4061C23.3985 21.2692 23.6065 21.2554 23.7434 21.3751L24.3832 21.935L26.1412 20.0794C26.2662 19.9474 26.4746 19.9417 26.6066 20.0668Z" fill="#00B386"/>
</svg>
