<svg width="42" height="42" viewBox="0 0 42 42" fill="none" xmlns="http://www.w3.org/2000/svg">
<circle cx="21" cy="21" r="21" fill="#00B386" fill-opacity="0.1"/>
<path fill-rule="evenodd" clip-rule="evenodd" d="M16.2377 11.0616C15.7483 11.2077 15.2933 11.5884 15.041 12.063C14.7692 12.5744 14.7829 12.3256 14.7431 17.4453C14.7234 19.9752 14.707 22.7347 14.7065 23.5777L14.7057 25.1102H13.4507C12.2414 25.1102 12.1928 25.1133 12.115 25.1937C12.0706 25.2396 12.0242 25.3213 12.0119 25.3752C11.9997 25.4293 11.9963 25.961 12.0043 26.557C12.0184 27.5984 12.0228 27.6534 12.1178 27.9705C12.4412 29.0496 13.2704 29.8205 14.2623 29.9641C14.4821 29.9959 16.2061 30.0057 20.032 29.9969C25.4553 29.9843 25.4895 29.9837 25.7139 29.8982C26.1489 29.7326 26.4749 29.5101 26.7909 29.1634C27.1326 28.7885 27.3293 28.4325 27.4727 27.9291L27.5667 27.5994L27.5769 22.1183L27.5871 16.6373L29.204 16.6258L30.8209 16.6142L30.9104 16.4988L31 16.3834L30.9994 14.6885C30.9988 12.8636 30.9854 12.7012 30.7989 12.2727C30.6043 11.8256 30.2091 11.3885 29.8285 11.1995C29.4045 10.989 29.7239 10.998 22.8358 11.001C17.4527 11.0032 16.4007 11.0129 16.2377 11.0616ZM27.4906 11.6943C27.5012 11.7134 27.4584 11.8007 27.3954 11.8882C27.2655 12.0687 27.1435 12.3225 27.0422 12.6234C26.9757 12.8207 26.972 13.1324 26.9543 20.2142C26.9363 27.3833 26.9336 27.6054 26.8641 27.8051C26.614 28.5238 26.127 29.04 25.5092 29.2412C25.2462 29.3268 24.7263 29.3265 24.4649 29.2405C23.7927 29.0193 23.2932 28.4664 23.075 27.7022C23.0228 27.5195 23.0068 27.2667 22.9921 26.3892C22.9741 25.3181 22.9726 25.301 22.8872 25.2063L22.8006 25.1102H19.0452H15.2898L15.3129 24.0714C15.3257 23.5 15.346 20.8201 15.3582 18.116C15.3704 15.4118 15.3943 13.0839 15.4113 12.9429C15.4885 12.3036 15.9409 11.7952 16.517 11.7006C16.7938 11.6551 27.4653 11.649 27.4906 11.6943ZM29.5589 11.8281C29.8534 11.9805 30.0867 12.2335 30.2298 12.5557L30.3505 12.8272L30.361 14.3813L30.3716 15.9354H28.9771H27.5827L27.5932 14.4028L27.6038 12.8703L27.7032 12.6352C27.8812 12.2142 28.1391 11.9383 28.5077 11.7744C28.7712 11.6572 29.2787 11.6832 29.5589 11.8281ZM22.3895 26.6222C22.39 27.1569 22.4079 27.5272 22.4418 27.7048C22.5429 28.2334 22.8024 28.7704 23.1266 29.1217C23.2101 29.2122 23.2787 29.3005 23.2791 29.318C23.2794 29.3354 21.2545 29.344 18.7793 29.3369C13.8287 29.3228 14.1661 29.3407 13.6788 29.0672C13.3907 28.9056 13.0166 28.4954 12.8597 28.1691C12.6605 27.7547 12.6272 27.5335 12.6272 26.6239V25.8097H17.508H22.3889L22.3895 26.6222Z" fill="#00B386"/>
<path fill-rule="evenodd" clip-rule="evenodd" d="M20.8381 13.15C19.0178 13.5125 17.7271 15.0584 17.8169 16.7686C17.8455 17.3123 17.9558 17.7146 18.2096 18.2002C18.7051 19.1482 19.5228 19.7764 20.6611 20.0832C20.9316 20.1561 21.0776 20.1692 21.5968 20.167C22.1436 20.1647 22.253 20.1528 22.5811 20.0593C23.6666 19.7501 24.4589 19.1265 24.9431 18.2002C25.1997 17.7091 25.3097 17.3088 25.3366 16.7686C25.4104 15.2835 24.4369 13.879 22.9508 13.3265C22.2931 13.082 21.5085 13.0165 20.8381 13.15ZM23.1962 14.3176C22.8495 14.0989 22.5828 13.996 22.1382 13.9094C21.1488 13.7167 20.1071 14.0401 19.4153 14.7547C19.1062 15.0739 18.9288 15.3563 18.775 15.7735C18.6624 16.0793 18.6505 16.1567 18.6502 16.5945C18.6497 17.1469 18.7126 17.4229 18.9364 17.8515C18.9491 17.8759 18.9612 17.8991 18.9725 17.921C19.0722 18.1132 19.1208 18.207 19.1821 18.215C19.2404 18.2226 19.3101 18.1523 19.4464 18.015C19.4627 17.9986 19.4799 17.9812 19.4982 17.9629C19.7499 17.7108 20.1668 17.4179 20.3606 17.357C20.3823 17.3502 20.3378 17.2254 20.2618 17.0799C20.1422 16.8506 20.1214 16.7673 20.1071 16.459C20.0871 16.0269 20.1629 15.7373 20.3724 15.446C20.6504 15.0595 21.0656 14.856 21.5763 14.856C22.0988 14.856 22.5099 15.0631 22.7996 15.4722C23.1052 15.9037 23.1439 16.595 22.8897 17.0819C22.8143 17.2264 22.7704 17.3502 22.7921 17.357C22.9858 17.4179 23.4027 17.7108 23.6544 17.9629C23.6727 17.9812 23.6899 17.9986 23.7062 18.015C23.8425 18.1523 23.9122 18.2226 23.9706 18.215C24.0318 18.207 24.0804 18.1132 24.1801 17.921C24.1915 17.8991 24.2035 17.8759 24.2163 17.8515C24.435 17.4326 24.5018 17.1455 24.5041 16.6139C24.5059 16.214 24.4909 16.1042 24.3959 15.821C24.1911 15.2104 23.7648 14.6762 23.1962 14.3176ZM21.957 15.7262C22.1297 15.8444 22.2325 16.0795 22.2325 16.3566C22.2325 16.6601 22.1596 16.8253 21.9632 16.9665C21.8347 17.059 21.7687 17.078 21.5763 17.078C21.1622 17.078 20.9201 16.8149 20.9201 16.3651C20.9201 16.0169 21.0578 15.7687 21.3097 15.6628C21.4475 15.6049 21.8351 15.6429 21.957 15.7262ZM23.2625 18.7095C23.0376 18.3662 22.5457 18.0501 22.0496 17.93C21.4138 17.7761 20.7029 17.9489 20.2042 18.3787C20.0812 18.4848 19.9398 18.6336 19.8901 18.7095L19.7997 18.8474L19.8985 18.9188C20.0652 19.0393 20.5571 19.2522 20.8381 19.3256C21.0235 19.374 21.2483 19.3951 21.5763 19.3951C21.9043 19.3951 22.1292 19.374 22.3145 19.3256C22.5955 19.2522 23.0874 19.0393 23.2541 18.9188L23.3529 18.8474L23.2625 18.7095Z" fill="#00B386"/>
<path d="M22.1382 13.9094C22.5828 13.996 22.8495 14.0989 23.1962 14.3176C23.7648 14.6762 24.1911 15.2104 24.3959 15.821C24.4909 16.1042 24.5059 16.214 24.5041 16.6139C24.5018 17.1455 24.435 17.4326 24.2163 17.8515L24.1801 17.921C24.0804 18.1132 24.0318 18.207 23.9706 18.215C23.9122 18.2226 23.8425 18.1523 23.7062 18.015L23.6544 17.9629C23.4027 17.7108 22.9858 17.4179 22.7921 17.357C22.7704 17.3502 22.8143 17.2264 22.8897 17.0819C23.1439 16.595 23.1052 15.9037 22.7996 15.4722C22.5099 15.0631 22.0988 14.856 21.5763 14.856C21.0656 14.856 20.6504 15.0595 20.3724 15.446C20.1629 15.7373 20.0871 16.0269 20.1071 16.459C20.1214 16.7673 20.1422 16.8506 20.2618 17.0799C20.3378 17.2254 20.3823 17.3502 20.3606 17.357C20.1668 17.4179 19.7499 17.7108 19.4982 17.9629L19.4464 18.015C19.3101 18.1523 19.2404 18.2226 19.1821 18.215C19.1208 18.207 19.0722 18.1132 18.9725 17.921L18.9364 17.8515C18.7126 17.4229 18.6497 17.1469 18.6502 16.5945C18.6505 16.1567 18.6624 16.0793 18.775 15.7735C18.9288 15.3563 19.1062 15.0739 19.4153 14.7547C20.1071 14.0401 21.1488 13.7167 22.1382 13.9094Z" fill="white"/>
<path d="M22.0496 17.93C22.5457 18.0501 23.0376 18.3662 23.2625 18.7095L23.3529 18.8474L23.2541 18.9188C23.0874 19.0393 22.5955 19.2522 22.3145 19.3256C22.1292 19.374 21.9043 19.3951 21.5763 19.3951C21.2483 19.3951 21.0235 19.374 20.8381 19.3256C20.5571 19.2522 20.0652 19.0393 19.8985 18.9188L19.7997 18.8474L19.8901 18.7095C19.9398 18.6336 20.0812 18.4848 20.2042 18.3787C20.7029 17.9489 21.4138 17.7761 22.0496 17.93Z" fill="white"/>
<path d="M21.957 15.7262C22.1297 15.8444 22.2325 16.0795 22.2325 16.3566C22.2325 16.6601 22.1596 16.8253 21.9632 16.9665C21.8347 17.059 21.7687 17.078 21.5763 17.078C21.1622 17.078 20.9201 16.8149 20.9201 16.3651C20.9201 16.0169 21.0578 15.7687 21.3097 15.6628C21.4475 15.6049 21.8351 15.6429 21.957 15.7262Z" fill="white"/>
<path d="M16.3242 21.8306C16.1853 21.6691 16.1891 21.4836 16.3342 21.3491L16.4475 21.2441H20.8328H25.2182L25.3233 21.3493C25.4676 21.4935 25.4652 21.7085 25.3179 21.847L25.2074 21.9508H20.8175H16.4276L16.3242 21.8306Z" fill="#00B386"/>
<path d="M16.3242 24.022C16.1853 23.8605 16.1891 23.675 16.3342 23.5406L16.4475 23.4355H20.8328H25.2182L25.3233 23.5407C25.4676 23.6849 25.4652 23.8999 25.3179 24.0384L25.2074 24.1422H20.8175H16.4276L16.3242 24.022Z" fill="#00B386"/>
</svg>
