<svg width="42" height="42" viewBox="0 0 42 42" fill="none" xmlns="http://www.w3.org/2000/svg">
<circle cx="21" cy="21" r="21" fill="#00B386" fill-opacity="0.1"/>
<path fill-rule="evenodd" clip-rule="evenodd" d="M24.4893 25.049L28.2394 22.7741C29.4443 22.0534 31.0885 23.7765 29.6247 25.049L22.5973 29.5087C21.6738 30.0043 19.962 30.3083 18.5317 29.5087C17.841 29.1071 16.3852 28.3037 16.0879 28.3037V28.9006C16.0879 29.002 16.0879 29.1033 15.8627 29.1033H12.2589C12.135 29.1033 11.9999 29.0695 11.9999 28.8893V22.4588C11.9999 22.3237 12.0111 22.1773 12.2702 22.166H15.8852C16.0204 22.166 16.1442 22.2336 16.1442 22.4138V22.9994H18.2727C19.9395 23.1008 19.9169 24.6324 23.273 24.272C23.547 24.2532 24.1739 24.3823 24.4893 25.049ZM28.3633 23.2809L24.4893 25.5896C24.4173 26.4275 23.8697 26.6933 23.3629 26.7609H19.8605C19.4663 26.7609 19.3988 26.2428 19.8605 26.2428L23.273 26.1752C24.4893 26.0401 24.0612 24.8087 23.273 24.8463C19.0271 25.049 19.7254 22.9994 16.1554 23.4949V27.8082C16.7139 27.8533 18.1675 28.6303 18.8244 29.0132C20.0497 29.752 21.561 29.3736 22.5973 28.9231L29.3093 24.5761C30.0661 23.9364 29.253 22.7323 28.3633 23.2809ZM12.5516 22.7629H15.5472L15.626 28.574H12.5516V22.7629Z" fill="#00B386"/>
<path fill-rule="evenodd" clip-rule="evenodd" d="M24.4893 25.049L28.2394 22.7741C29.4443 22.0534 31.0885 23.7765 29.6247 25.049L22.5973 29.5087C21.6738 30.0043 19.962 30.3083 18.5317 29.5087C17.841 29.1071 16.3852 28.3037 16.0879 28.3037V28.9006C16.0879 29.002 16.0879 29.1033 15.8627 29.1033H12.2589C12.135 29.1033 11.9999 29.0695 11.9999 28.8893V22.4588C11.9999 22.3237 12.0111 22.1773 12.2702 22.166H15.8852C16.0204 22.166 16.1442 22.2336 16.1442 22.4138V22.9994H18.2727C19.9395 23.1008 19.9169 24.6324 23.273 24.272C23.547 24.2532 24.1739 24.3823 24.4893 25.049ZM28.3633 23.2809L24.4893 25.5896C24.4173 26.4275 23.8697 26.6933 23.3629 26.7609H19.8605C19.4663 26.7609 19.3988 26.2428 19.8605 26.2428L23.273 26.1752C24.4893 26.0401 24.0612 24.8087 23.273 24.8463C19.0271 25.049 19.7254 22.9994 16.1554 23.4949V27.8082C16.7139 27.8533 18.1675 28.6303 18.8244 29.0132C20.0497 29.752 21.561 29.3736 22.5973 28.9231L29.3093 24.5761C30.0661 23.9364 29.253 22.7323 28.3633 23.2809ZM12.5516 22.7629H15.5472L15.626 28.574H12.5516V22.7629Z" stroke="#00B386" stroke-width="0.3"/>
<path fill-rule="evenodd" clip-rule="evenodd" d="M22.2188 20.9043C24.6393 20.9043 26.6016 18.942 26.6016 16.5215C26.6016 14.1009 24.6393 12.1387 22.2188 12.1387C19.7982 12.1387 17.8359 14.1009 17.8359 16.5215C17.8359 18.942 19.7982 20.9043 22.2188 20.9043ZM22.2188 22C25.2445 22 27.6973 19.5472 27.6973 16.5215C27.6973 13.4958 25.2445 11.043 22.2188 11.043C19.193 11.043 16.7402 13.4958 16.7402 16.5215C16.7402 19.5472 19.193 22 22.2188 22Z" fill="#00B386"/>
<path d="M26.6016 16.5215C26.6016 18.942 24.6393 20.9043 22.2188 20.9043C19.7982 20.9043 17.8359 18.942 17.8359 16.5215C17.8359 14.1009 19.7982 12.1387 22.2188 12.1387C24.6393 12.1387 26.6016 14.1009 26.6016 16.5215Z" fill="white"/>
<path fill-rule="evenodd" clip-rule="evenodd" d="M21.4397 15.6392C22.5391 15.6339 22.5502 15.64 22.2282 16.0711C21.9993 16.3778 21.7545 16.4609 21.0707 16.4642L20.5654 16.4666L20.568 16.7991L20.5706 17.1315L21.5082 18.4409L22.4457 19.7502L22.9674 19.7477C23.2543 19.7463 23.4877 19.7239 23.4862 19.6977C23.4845 19.6716 23.1046 19.1249 22.6418 18.4829C22.1124 17.7484 21.822 17.2982 21.8588 17.2687C21.8909 17.2429 21.9699 17.2212 22.0341 17.2203C22.0985 17.2195 22.2885 17.1573 22.4564 17.0821C22.8623 16.9003 23.163 16.525 23.2971 16.0327L23.3983 15.6614L23.6686 15.6411L23.9389 15.6208L24.0196 15.2814C24.064 15.0947 24.1002 14.925 24.1001 14.9043C24.1 14.8835 23.9377 14.8673 23.7395 14.8683L23.379 14.87L23.2848 14.538C23.233 14.3554 23.1782 14.1705 23.1631 14.127C23.1424 14.068 23.2347 14.0475 23.528 14.0461L23.9205 14.0442L23.9838 13.7748C24.0187 13.6266 24.059 13.455 24.0735 13.3935C24.0983 13.2881 24.0012 13.2832 22.3705 13.3068L20.6412 13.3319L20.5772 13.5971C20.542 13.7431 20.4987 13.9334 20.4809 14.0202L20.4486 14.1781L21.1852 14.1951C21.9996 14.214 22.1151 14.263 22.3195 14.676L22.4178 14.8747L21.5207 14.879L20.6236 14.8833L20.5456 15.2636L20.4675 15.6439L21.4397 15.6392Z" fill="#00B386"/>
</svg>
