<svg width="42" height="42" viewBox="0 0 42 42" fill="none" xmlns="http://www.w3.org/2000/svg">
<circle cx="21" cy="21" r="21" fill="#00B386" fill-opacity="0.1"/>
<path fill-rule="evenodd" clip-rule="evenodd" d="M29.6564 19.1886C29.9141 19.45 29.9251 19.8855 29.681 20.1614L25.3989 25L23.2195 22.9587C22.9523 22.7084 22.9253 22.2737 23.1591 21.9877C23.3929 21.7016 23.799 21.6726 24.0662 21.9229L25.3154 23.093L28.7476 19.2149C28.9918 18.939 29.3987 18.9272 29.6564 19.1886Z" fill="#00B386"/>
<path d="M15.3945 22.6082C15.3945 22.4869 15.5161 22.313 15.6342 22.2653C15.6778 22.2477 16.952 22.2322 18.4657 22.2309L21.2179 22.2285L21.3455 22.3561C21.5188 22.5294 21.5186 22.6783 21.3448 22.8521L21.2165 22.9804L18.415 22.9703L15.6135 22.9602L15.504 22.8376C15.4373 22.763 15.3945 22.6733 15.3945 22.6082Z" fill="#00B386"/>
<path d="M15.3945 24.4871C15.3945 24.3658 15.5161 24.1919 15.6342 24.1442C15.6778 24.1266 16.952 24.1111 18.4657 24.1098L21.2179 24.1074L21.3455 24.235C21.5188 24.4083 21.5186 24.5572 21.3448 24.731L21.2165 24.8593L18.415 24.8492L15.6135 24.8391L15.504 24.7166C15.4373 24.6419 15.3945 24.5522 15.3945 24.4871Z" fill="#00B386"/>
<path d="M15.3945 26.3894C15.3945 26.2682 15.5161 26.0943 15.6342 26.0465C15.6778 26.0289 16.952 26.0134 18.4657 26.0121L21.2179 26.0098L21.3455 26.1373C21.5188 26.3107 21.5186 26.4595 21.3448 26.6333L21.2165 26.7616L18.415 26.7515L15.6135 26.7414L15.504 26.6189C15.4373 26.5443 15.3945 26.4545 15.3945 26.3894Z" fill="#00B386"/>
<path fill-rule="evenodd" clip-rule="evenodd" d="M17.5274 12.8964C15.6079 13.3026 14.2469 15.0347 14.3416 16.9508C14.3717 17.56 14.488 18.0107 14.7556 18.5548C15.2782 19.617 16.1405 20.3208 17.3408 20.6645C17.626 20.7462 17.78 20.7609 18.3275 20.7584C18.9042 20.7559 19.0195 20.7425 19.3655 20.6378C20.5101 20.2914 21.3456 19.5927 21.8562 18.5548C22.1268 18.0046 22.2429 17.5561 22.2711 16.9508C22.349 15.2869 21.3224 13.7132 19.7553 13.0942C19.0617 12.8203 18.2344 12.7468 17.5274 12.8964ZM20.014 14.2046C19.6485 13.9597 19.3673 13.8444 18.8984 13.7473C17.855 13.5314 16.7566 13.8938 16.027 14.6944C15.7012 15.0521 15.514 15.3685 15.3519 15.8358C15.2331 16.1785 15.2206 16.2652 15.2203 16.7558C15.2198 17.3746 15.2861 17.6839 15.522 18.1641C15.5355 18.1915 15.5482 18.2175 15.5602 18.242C15.6653 18.4573 15.7166 18.5624 15.7811 18.5713C15.8426 18.5799 15.9162 18.5011 16.0599 18.3473C16.077 18.3289 16.0952 18.3094 16.1145 18.2889C16.38 18.0064 16.8195 17.6783 17.0239 17.61C17.0468 17.6024 16.9999 17.4627 16.9197 17.2996C16.7936 17.0427 16.7717 16.9494 16.7566 16.6039C16.7355 16.1197 16.8154 15.7954 17.0363 15.469C17.3295 15.0359 17.7673 14.8079 18.3059 14.8079C18.8568 14.8079 19.2904 15.0399 19.5959 15.4983C19.9181 15.9817 19.9589 16.7563 19.6909 17.3018C19.6114 17.4637 19.565 17.6024 19.5879 17.61C19.7923 17.6783 20.2318 18.0064 20.4973 18.2889C20.5166 18.3094 20.5347 18.3289 20.5519 18.3473C20.6956 18.5011 20.7692 18.5799 20.8307 18.5713C20.8952 18.5624 20.9465 18.4573 21.0516 18.242C21.0636 18.2175 21.0763 18.1915 21.0898 18.1641C21.3204 17.6947 21.3909 17.3731 21.3933 16.7774C21.3952 16.3295 21.3794 16.2065 21.2792 15.8891C21.0632 15.205 20.6137 14.6065 20.014 14.2046ZM18.7073 15.7829C18.8895 15.9153 18.9979 16.1788 18.9979 16.4892C18.9979 16.8292 18.921 17.0143 18.7139 17.1725C18.5784 17.2762 18.5088 17.2974 18.3059 17.2974C17.8693 17.2974 17.6139 17.0027 17.6139 16.4987C17.6139 16.1086 17.7591 15.8305 18.0248 15.7119C18.1701 15.647 18.5788 15.6895 18.7073 15.7829ZM20.084 19.1254C19.8468 18.7408 19.3281 18.3867 18.805 18.252C18.1345 18.0796 17.3849 18.2732 16.859 18.7548C16.7293 18.8736 16.5802 19.0404 16.5278 19.1254L16.4325 19.2799L16.5366 19.36C16.7124 19.4949 17.2312 19.7335 17.5274 19.8157C17.7229 19.8699 17.96 19.8936 18.3059 19.8936C18.6518 19.8936 18.8889 19.8699 19.0844 19.8157C19.3806 19.7335 19.8994 19.4949 20.0752 19.36L20.1793 19.2799L20.084 19.1254Z" fill="#00B386"/>
<path d="M18.8984 13.7473C19.3673 13.8444 19.6485 13.9597 20.014 14.2046C20.6137 14.6065 21.0632 15.205 21.2792 15.8891C21.3794 16.2065 21.3952 16.3295 21.3933 16.7774C21.3909 17.3731 21.3204 17.6947 21.0898 18.1641L21.0516 18.242C20.9465 18.4573 20.8952 18.5624 20.8307 18.5713C20.7692 18.5799 20.6956 18.5011 20.5519 18.3473L20.4973 18.2889C20.2318 18.0064 19.7923 17.6783 19.5879 17.61C19.565 17.6024 19.6114 17.4637 19.6909 17.3018C19.9589 16.7563 19.9181 15.9817 19.5959 15.4983C19.2904 15.0399 18.8568 14.8079 18.3059 14.8079C17.7673 14.8079 17.3295 15.0359 17.0363 15.469C16.8154 15.7954 16.7355 16.1197 16.7566 16.6039C16.7717 16.9494 16.7936 17.0427 16.9197 17.2996C16.9999 17.4627 17.0468 17.6024 17.0239 17.61C16.8195 17.6783 16.38 18.0064 16.1145 18.2889L16.0599 18.3473C15.9162 18.5011 15.8426 18.5799 15.7811 18.5713C15.7166 18.5624 15.6653 18.4573 15.5602 18.242L15.522 18.1641C15.2861 17.6839 15.2198 17.3746 15.2203 16.7558C15.2206 16.2652 15.2331 16.1785 15.3519 15.8358C15.514 15.3685 15.7012 15.0521 16.027 14.6944C16.7566 13.8938 17.855 13.5314 18.8984 13.7473Z" fill="white"/>
<path d="M18.805 18.252C19.3281 18.3867 19.8468 18.7408 20.084 19.1254L20.1793 19.2799L20.0752 19.36C19.8994 19.4949 19.3806 19.7335 19.0844 19.8157C18.8889 19.8699 18.6518 19.8936 18.3059 19.8936C17.96 19.8936 17.7229 19.8699 17.5274 19.8157C17.2312 19.7335 16.7124 19.4949 16.5366 19.36L16.4325 19.2799L16.5278 19.1254C16.5802 19.0404 16.7293 18.8736 16.859 18.7548C17.3849 18.2732 18.1345 18.0796 18.805 18.252Z" fill="white"/>
<path d="M18.7073 15.7829C18.8895 15.9153 18.9979 16.1788 18.9979 16.4892C18.9979 16.8292 18.921 17.0143 18.7139 17.1725C18.5784 17.2762 18.5088 17.2974 18.3059 17.2974C17.8693 17.2974 17.6139 17.0027 17.6139 16.4987C17.6139 16.1086 17.7591 15.8305 18.0248 15.7119C18.1701 15.647 18.5788 15.6895 18.7073 15.7829Z" fill="white"/>
<path fill-rule="evenodd" clip-rule="evenodd" d="M12.7645 11.0599C12.3934 11.1886 12.1121 11.4996 12.033 11.8686C12.0032 12.0075 11.9948 14.4989 12.003 20.7108L12.0144 29.3596L12.095 29.534C12.1981 29.757 12.4424 30.0013 12.6654 30.1044L12.8399 30.185H19.9503H27.0606L27.2351 30.1044C27.4581 30.0013 27.7024 29.757 27.8055 29.534C27.884 29.3641 27.8861 28.3175 27.8861 26.7585V25.1575L27.7987 25.0645C27.6904 24.9491 27.5456 24.9186 27.3983 24.9802C27.1671 25.0769 27.1749 25.022 27.1544 26.6948L27.1357 29.2266L27.0316 29.3306L26.9276 29.4346H19.9503H12.9729L12.8689 29.3306L12.7648 29.2265V20.5982V11.9699L12.8689 11.8659L12.9729 11.7618H19.9503H26.9276L27.0316 11.8659L27.1357 11.9699L27.1544 17.1632L27.1732 19.3566L27.273 19.4564C27.4129 19.5962 27.6465 19.5962 27.7863 19.4563L27.8861 19.3565V17.0967C27.8861 14.8637 27.8851 11.8348 27.8055 11.6624C27.7024 11.4395 27.4581 11.1951 27.2351 11.092L27.0606 11.0114L20.0065 11.003C13.3928 10.9952 12.9407 10.9988 12.7645 11.0599Z" fill="#00B386"/>
</svg>
