<svg width="456" height="456" viewBox="0 0 456 456" fill="none" xmlns="http://www.w3.org/2000/svg">
<path d="M433.921 252.666C421.614 289.967 395.101 330.847 356.085 344.155C297.132 364.268 291.866 412.618 184.87 412.288C168.187 412.237 152.703 410.491 138.416 407.299C130.736 405.584 123.4 403.441 116.419 400.914C53.0356 378.05 18.3321 323.676 13.38 265.572C6.85462 189.152 58.8605 150.597 92.7504 127.89C126.64 105.182 165.283 20.7733 270.469 20.2717C286.507 20.2024 302.571 21.7738 318.217 25.3725C353.934 33.5723 390.683 53.3436 412.759 83.4688C414.416 85.7324 416.003 88.0525 417.528 90.42C447.303 136.749 450.702 201.814 433.921 252.666Z" fill="#00B386"/>
<path opacity="0.9" d="M433.921 252.666C421.614 289.967 395.101 330.847 356.085 344.155C297.132 364.268 291.866 412.618 184.87 412.288C168.187 412.237 152.703 410.491 138.416 407.299C130.736 405.584 123.4 403.441 116.419 400.914C53.0356 378.05 18.3321 323.676 13.38 265.572C6.85462 189.152 58.8605 150.597 92.7504 127.89C126.64 105.182 165.283 20.7733 270.469 20.2717C286.507 20.2024 302.571 21.7738 318.217 25.3725C353.934 33.5723 390.683 53.3436 412.759 83.4688C414.416 85.7324 416.003 88.0525 417.528 90.42C447.303 136.749 450.702 201.814 433.921 252.666Z" fill="white"/>
<path d="M64.024 254.341L64.0259 254.335C64.0432 254.292 64.0222 254.242 63.9794 254.224C63.9356 254.205 63.8845 254.225 63.8654 254.27C61.2342 260.346 59.3838 266.726 57.8389 273.161C56.3487 279.613 55.2688 286.159 54.5137 292.745L54.0422 297.695C53.9692 298.521 53.8799 299.346 53.8206 300.172L53.6856 302.656C53.6145 304.312 53.5123 305.968 53.4658 307.626L53.5114 312.601L53.5671 315.087C53.6035 315.915 53.6637 316.743 53.7194 317.57C53.8452 319.223 53.9455 320.878 54.0969 322.526C54.4143 325.824 54.9095 329.105 55.4202 332.371C55.4266 332.413 55.4631 332.444 55.5069 332.444C55.5552 332.444 55.5935 332.405 55.5935 332.357V332.352C55.5844 330.694 55.5151 329.045 55.4777 327.395C55.4303 325.746 55.2862 324.105 55.3099 322.455C55.3172 320.806 55.2743 319.162 55.2561 317.518L55.2105 315.053L55.2543 312.587L55.2761 307.657L55.4102 302.731L55.4613 300.265C55.4932 299.444 55.5543 298.625 55.5999 297.804L55.9027 292.88C56.4791 286.328 57.3792 279.8 58.6916 273.347C59.9985 266.9 61.6182 260.479 64.024 254.341Z" fill="#263238"/>
<path d="M64.7301 280.117C64.7428 280.073 64.72 280.023 64.6753 280.009C64.6297 279.993 64.5805 280.017 64.5641 280.062C63.1459 284.158 62.0132 288.348 61.0547 292.581C60.14 296.822 59.4213 301.119 58.9835 305.448C58.5458 309.762 58.0633 314.08 58.0041 318.418C57.9375 322.752 58.0068 327.092 58.4646 331.424C58.4692 331.464 58.5011 331.497 58.5421 331.501C58.5905 331.507 58.6333 331.471 58.6379 331.424C59.1386 327.105 59.4441 322.798 59.7432 318.491C60.0488 314.187 60.0898 309.87 60.3707 305.565C60.6306 301.272 61.1696 296.996 61.9083 292.749C62.6352 288.5 63.5381 284.268 64.7301 280.117Z" fill="#263238"/>
<path d="M79.02 289.183C78.9945 289.143 78.9407 289.13 78.8997 289.156C75.3228 291.42 72.1326 294.272 69.3446 297.486C67.9739 299.117 66.7007 300.824 65.6091 302.681L64.8412 304.13L64.2402 305.635C64.024 306.134 63.8717 306.648 63.7158 307.16C63.5616 307.674 63.3884 308.186 63.2497 308.703C62.1763 312.844 61.4659 317.065 61.2725 321.307C61.1001 325.546 61.1804 329.793 61.7468 334.002C61.7531 334.043 61.786 334.075 61.827 334.078C61.8753 334.082 61.9173 334.045 61.921 333.997L63.0099 321.43C63.444 317.275 63.7103 313.096 64.6022 309.038C64.7153 308.533 64.8612 308.039 64.9889 307.538C65.1184 307.037 65.2443 306.535 65.4294 306.058L65.9392 304.605L66.5959 303.233C67.5635 301.418 68.7473 299.681 70.0195 298.035C72.5713 294.742 75.5736 291.739 78.9918 289.303L78.9963 289.299C79.0346 289.274 79.0447 289.222 79.02 289.183Z" fill="#263238"/>
<path d="M72.1046 305.33C70.1575 306.588 68.8552 308.565 67.7599 310.554C66.7156 312.586 65.893 314.742 65.3248 316.953C65.1534 317.5 65.0193 318.055 64.8998 318.613L64.5058 320.284C64.3052 321.405 64.1474 322.54 64.0836 323.677C64.069 324.817 64.0362 325.956 64.1128 327.093C64.2076 328.229 64.3362 329.363 64.5606 330.486C64.5688 330.518 64.5952 330.549 64.6299 330.556C64.6782 330.566 64.7247 330.534 64.7348 330.486C65.0102 329.365 65.1908 328.254 65.3367 327.146C65.5136 326.039 65.6851 324.939 65.8173 323.84C65.9787 322.744 66.1237 321.651 66.2095 320.547C66.3627 319.458 66.4429 318.345 66.6819 317.269C67.064 315.09 67.6942 312.963 68.5451 310.929C69.3923 308.912 70.4968 306.902 72.1931 305.481L72.2059 305.47C72.2387 305.443 72.2469 305.394 72.2232 305.357C72.1977 305.316 72.1438 305.304 72.1046 305.33Z" fill="#263238"/>
<path d="M52.0632 317.917C51.5935 312.339 50.6733 306.816 49.8032 301.295C48.9314 295.774 47.9692 290.27 46.9596 284.775C45.9135 279.288 44.821 273.81 43.6372 268.352C43.6272 268.306 43.5825 268.276 43.5369 268.285C43.4894 268.293 43.4584 268.338 43.4666 268.386C44.4215 273.885 45.2852 279.4 46.1014 284.92C46.9386 290.436 47.7266 295.959 48.4252 301.492C49.1074 307.027 49.6382 312.575 50.3322 318.101L52.3732 334.708C52.3778 334.75 52.4125 334.783 52.4562 334.786C52.5046 334.788 52.5447 334.751 52.5474 334.703C52.6113 333.304 52.6131 331.904 52.6468 330.501C52.6596 329.099 52.5903 327.703 52.5648 326.301C52.5119 323.497 52.2729 320.709 52.0632 317.917Z" fill="#263238"/>
<path d="M48.7182 317.837C48.4199 315.628 48.0141 313.431 47.5918 311.241L46.8084 307.984C46.5522 306.898 46.3087 305.81 45.9904 304.738C44.8768 300.416 43.455 296.168 41.7268 292.051L41.0574 290.517L40.3141 289.015C39.8408 288.003 39.2699 287.04 38.7272 286.065C37.5608 284.165 36.3505 282.267 34.7007 280.726C34.667 280.695 34.6141 280.695 34.5813 280.727C34.5466 280.76 34.5457 280.816 34.5794 280.85L34.5876 280.859C36.1125 282.44 37.2242 284.392 38.2712 286.32C38.7564 287.312 39.2689 288.287 39.6839 289.311L40.3387 290.829L40.9197 292.379C42.4655 296.509 43.7049 300.754 44.637 305.069C45.145 307.215 45.4824 309.403 45.8983 311.567L46.4208 314.837C46.6096 315.924 46.8431 317.004 46.9954 318.097C47.3438 320.279 47.7451 322.454 48.1254 324.636C48.4637 326.824 48.8632 329.009 49.3246 331.195C49.3329 331.235 49.3684 331.267 49.4104 331.267C49.4587 331.267 49.4979 331.229 49.4979 331.181C49.508 328.952 49.456 326.722 49.342 324.495C49.2134 322.271 48.9498 320.056 48.7182 317.837Z" fill="#263238"/>
<path d="M44.1017 318.122C43.0675 315.194 41.8718 312.329 40.5686 309.52C39.2307 306.725 37.787 303.985 36.1253 301.374C36.0998 301.337 36.0469 301.322 36.0077 301.345C35.9657 301.37 35.953 301.423 35.9767 301.465C37.4286 304.176 38.6561 307.005 39.7688 309.865C40.9015 312.718 41.922 315.614 42.7765 318.555C43.6493 321.493 44.274 324.488 45.0556 327.439C45.8773 330.389 46.5422 333.368 47.4487 336.355C47.4597 336.391 47.4934 336.419 47.5326 336.42C47.581 336.421 47.6211 336.382 47.622 336.333C47.6658 333.217 47.3602 330.102 46.7538 327.052C46.2075 323.984 45.1295 321.046 44.1017 318.122Z" fill="#263238"/>
<path d="M43.91 327.871C43.381 326.038 42.4791 324.331 41.454 322.721C40.4471 321.104 39.2798 319.575 37.8799 318.28C37.1585 317.655 36.4216 317.054 35.6062 316.565C34.8037 316.063 33.951 315.639 33.0271 315.399C32.987 315.389 32.9441 315.409 32.9259 315.448C32.9067 315.492 32.9259 315.543 32.9696 315.563L32.9797 315.567C34.6514 316.311 36.0641 317.542 37.2579 318.891C38.4681 320.241 39.433 321.79 40.2383 323.403C41.0846 325.006 41.5224 326.777 42.2584 328.427C42.583 329.274 42.9059 330.125 43.2816 330.971C43.5999 331.834 43.9538 332.694 44.4034 333.548L44.4061 333.553C44.4207 333.58 44.449 333.599 44.4818 333.6C44.5311 333.602 44.573 333.564 44.5748 333.514C44.615 332.56 44.5584 331.61 44.4681 330.663C44.3313 329.727 44.1334 328.797 43.91 327.871Z" fill="#263238"/>
<path d="M44.2547 276.339C44.2547 276.339 35.1128 274.23 33.0034 264.385C30.8939 254.539 37.6911 258.758 31.5971 243.288C25.5022 227.818 26.9094 224.302 29.0188 219.848C31.1283 215.395 32.3002 216.801 34.1753 222.661C36.0504 228.52 42.8484 237.662 45.4266 254.774C48.0049 271.886 44.2547 276.339 44.2547 276.339Z" fill="#00B386"/>
<path d="M62.3041 259.696C62.3041 259.696 56.2092 257.587 55.9748 246.101C55.7404 234.615 60.4281 236.959 61.1322 222.661C61.8353 208.362 62.7729 198.283 65.3511 198.048C67.9293 197.814 74.7274 205.081 77.0712 221.02C79.415 236.959 74.0242 247.507 69.3356 252.195C64.6479 256.883 62.3041 259.696 62.3041 259.696Z" fill="#00B386"/>
<path d="M40.9731 290.169C40.9731 290.169 39.5668 281.73 36.7542 277.746C33.9416 273.76 27.8467 270.244 23.8621 262.51C19.8776 254.775 15.4234 251.024 15.6578 262.041C15.8922 273.058 20.8142 278.684 26.9091 282.434C33.0031 286.183 40.9731 290.169 40.9731 290.169Z" fill="#00B386"/>
<path d="M38.3951 304.702C38.3951 304.702 32.769 293.919 24.5655 285.949C16.3612 277.979 9.79843 273.995 12.1423 277.979C14.4861 281.964 17.2996 281.729 21.2842 288.762C25.2687 295.794 24.0968 300.951 29.7229 304.935C35.349 308.92 38.3951 304.702 38.3951 304.702Z" fill="#00B386"/>
<path d="M37.6912 318.531C37.4568 317.828 37.2224 312.671 29.2534 308.452C21.2834 304.233 13.7831 305.873 14.7207 307.983C15.6582 310.092 20.5803 313.609 25.5032 315.718C30.4253 317.828 37.6912 318.531 37.6912 318.531Z" fill="#00B386"/>
<path d="M61.8343 290.637C61.8343 290.637 58.3186 286.184 60.1936 276.807C62.0687 267.431 66.2876 269.775 70.9762 264.853C75.6639 259.931 74.7264 259.228 79.414 254.07C84.1017 248.913 88.3215 246.1 90.1966 248.21C92.0717 250.319 89.2591 256.883 86.4465 260.633C83.6339 264.383 79.1806 266.258 77.0702 270.947C74.9607 275.635 75.8983 283.136 70.5065 286.651C65.1166 290.168 61.8343 290.637 61.8343 290.637Z" fill="#00B386"/>
<path d="M73.5547 293.215C73.5547 293.215 81.9934 283.604 88.0874 276.573C94.1823 269.54 96.5261 264.149 96.7605 268.837C96.9949 273.525 98.87 277.276 93.9479 283.37C89.0259 289.465 73.5547 293.215 73.5547 293.215Z" fill="#00B386"/>
<path d="M69.1013 308.685C69.1013 308.685 68.867 304.935 82.2278 296.262C95.5886 287.589 101.215 285.948 99.8075 289.465C98.4012 292.98 92.5416 296.496 86.2123 302.825C79.8839 309.154 69.1013 308.685 69.1013 308.685Z" fill="#00B386"/>
<path d="M44.8119 275.339C44.8119 275.339 41.6756 258.523 38.3942 246.569C35.1128 234.614 33.0024 227.348 33.0024 227.348" stroke="#263238" stroke-miterlimit="10" stroke-linecap="round" stroke-linejoin="round"/>
<path d="M61.7632 259.872C61.7632 259.872 67.4595 241.646 69.3355 230.63C71.2106 219.613 69.1011 211.408 68.1636 206.486" stroke="#263238" stroke-miterlimit="10" stroke-linecap="round" stroke-linejoin="round"/>
<path d="M40.2346 289.817C40.2346 289.817 36.7544 283.605 31.5971 277.511C26.4406 271.416 22.4552 268.135 20.1113 262.275" stroke="#263238" stroke-miterlimit="10" stroke-linecap="round" stroke-linejoin="round"/>
<path d="M61.8345 290.638C61.8345 290.638 63.7095 279.387 68.1637 273.526C72.617 267.666 81.5246 258.525 85.0403 252.664" stroke="#263238" stroke-miterlimit="10" stroke-linecap="round" stroke-linejoin="round"/>
<path d="M37.141 318.274C37.141 318.274 29.2531 313.139 23.6279 310.326" stroke="#263238" stroke-miterlimit="10" stroke-linecap="round" stroke-linejoin="round"/>
<path d="M82.3035 365.523C81.7763 351.299 65.9723 341.816 65.9723 341.816H55.974H51.7487H41.7505C41.7505 341.816 25.9464 351.299 25.4193 365.523C24.8922 379.746 43.331 431.901 43.331 431.901H51.7487H55.974H64.3918C64.3918 431.901 82.8306 379.746 82.3035 365.523Z" fill="#656869" stroke="#656869" stroke-miterlimit="10" stroke-linecap="round" stroke-linejoin="round"/>
<path d="M69.0913 327.83H38.1846L41.7505 341.816H65.5254L69.0913 327.83Z" fill="#656869" stroke="#656869" stroke-miterlimit="10" stroke-linecap="round" stroke-linejoin="round"/>
<path opacity="0.3" d="M440.051 431.898H16.2617" stroke="#263238" stroke-miterlimit="10" stroke-linecap="round" stroke-linejoin="round"/>
<path d="M277.408 53.3115V366.698C277.408 375.3 270.434 382.273 261.833 382.273H126.422C117.82 382.273 110.847 375.299 110.847 366.698V53.3033C110.847 44.7058 117.817 37.7363 126.414 37.7363H184.536L184.584 37.9142C186.032 43.1272 189.368 46.518 193.067 46.518H195.187C198.886 46.518 202.22 43.1263 203.67 37.9142L203.726 37.7363H261.832C270.434 37.7363 277.408 44.7095 277.408 53.3115Z" fill="white" stroke="#263238" stroke-miterlimit="10"/>
<path d="M219.695 260.254H171.392C168.952 260.254 166.975 258.277 166.975 255.837V246.866C166.975 244.426 168.952 242.449 171.392 242.449H219.695C222.135 242.449 224.112 244.426 224.112 246.866V255.837C224.112 258.277 222.135 260.254 219.695 260.254Z" fill="#00B386"/>
<path d="M110.847 284.777V366.697C110.847 375.299 117.82 382.271 126.422 382.271H261.833C270.435 382.271 277.408 375.298 277.408 366.697V284.777H110.847Z" fill="#DBDBDB" stroke="#263238" stroke-miterlimit="10" stroke-linecap="round" stroke-linejoin="round"/>
<path d="M161.574 310.012H120.053C118.908 310.012 117.98 309.083 117.98 307.939V296.743C117.98 295.598 118.908 294.67 120.053 294.67H161.574C162.719 294.67 163.647 295.597 163.647 296.743V307.939C163.647 309.084 162.719 310.012 161.574 310.012Z" fill="white"/>
<path d="M212.678 310.012H171.157C170.012 310.012 169.084 309.083 169.084 307.939V296.743C169.084 295.598 170.012 294.67 171.157 294.67H212.678C213.823 294.67 214.751 295.597 214.751 296.743V307.939C214.751 309.084 213.823 310.012 212.678 310.012Z" fill="white"/>
<path d="M263.782 310.012H222.26C221.115 310.012 220.187 309.083 220.187 307.939V296.743C220.187 295.598 221.115 294.67 222.26 294.67H263.782C264.927 294.67 265.855 295.597 265.855 296.743V307.939C265.855 309.084 264.927 310.012 263.782 310.012Z" fill="white"/>
<path d="M161.574 329.615H120.053C118.908 329.615 117.98 328.687 117.98 327.542V316.346C117.98 315.202 118.908 314.273 120.053 314.273H161.574C162.719 314.273 163.647 315.201 163.647 316.346V327.542C163.647 328.687 162.719 329.615 161.574 329.615Z" fill="white"/>
<path d="M212.678 329.615H171.157C170.012 329.615 169.084 328.687 169.084 327.542V316.346C169.084 315.202 170.012 314.273 171.157 314.273H212.678C213.823 314.273 214.751 315.201 214.751 316.346V327.542C214.751 328.687 213.823 329.615 212.678 329.615Z" fill="white"/>
<path d="M263.782 329.615H222.26C221.115 329.615 220.187 328.687 220.187 327.542V316.346C220.187 315.202 221.115 314.273 222.26 314.273H263.782C264.927 314.273 265.855 315.201 265.855 316.346V327.542C265.855 328.687 264.927 329.615 263.782 329.615Z" fill="white"/>
<path d="M161.574 349.217H120.053C118.908 349.217 117.98 348.288 117.98 347.144V335.948C117.98 334.803 118.908 333.875 120.053 333.875H161.574C162.719 333.875 163.647 334.803 163.647 335.948V347.144C163.647 348.289 162.719 349.217 161.574 349.217Z" fill="white"/>
<path d="M212.678 349.217H171.157C170.012 349.217 169.084 348.288 169.084 347.144V335.948C169.084 334.803 170.012 333.875 171.157 333.875H212.678C213.823 333.875 214.751 334.803 214.751 335.948V347.144C214.751 348.289 213.823 349.217 212.678 349.217Z" fill="white"/>
<path d="M263.782 349.217H222.26C221.115 349.217 220.187 348.288 220.187 347.144V335.948C220.187 334.803 221.115 333.875 222.26 333.875H263.782C264.927 333.875 265.855 334.803 265.855 335.948V347.144C265.855 348.289 264.927 349.217 263.782 349.217Z" fill="white"/>
<path d="M212.678 368.82H171.157C170.012 368.82 169.084 367.892 169.084 366.747V355.551C169.084 354.407 170.012 353.479 171.157 353.479H212.678C213.823 353.479 214.751 354.407 214.751 355.551V366.747C214.751 367.892 213.823 368.82 212.678 368.82Z" fill="white"/>
<path d="M260.34 368.82H231.851L225.704 361.676L231.851 353.479H260.34V368.82Z" fill="white"/>
<path d="M195.955 108.71L195.544 108.4L195.132 108.71C195.132 108.71 174.137 120.648 164.669 125.176C164.669 125.176 169.197 150.699 172.49 162.226C175.783 173.752 188.545 179.928 195.544 184.044C202.542 179.928 215.304 173.752 218.597 162.226C221.891 150.699 226.419 125.176 226.419 125.176C216.95 120.648 195.955 108.71 195.955 108.71Z" fill="#00B386"/>
<path d="M193.392 158.058L179.47 146.124C178.131 144.977 177.976 142.962 179.124 141.623C180.271 140.285 182.286 140.13 183.625 141.278L192.756 149.104L208.377 131.304C209.539 129.978 211.555 129.847 212.881 131.01C214.206 132.173 214.337 134.19 213.175 135.515L193.392 158.058Z" fill="white"/>
<path d="M141.204 198.297H122.267V217.234H141.204V198.297Z" fill="white" stroke="#263238" stroke-miterlimit="10"/>
<path d="M166.727 198.297H147.791V217.234H166.727V198.297Z" fill="white" stroke="#263238" stroke-miterlimit="10"/>
<path d="M192.25 198.297H173.313V217.234H192.25V198.297Z" fill="white" stroke="#263238" stroke-miterlimit="10"/>
<path d="M217.774 198.297H198.837V217.234H217.774V198.297Z" fill="white" stroke="#263238" stroke-miterlimit="10"/>
<path d="M243.297 198.297H224.36V217.234H243.297V198.297Z" fill="white" stroke="#263238" stroke-miterlimit="10"/>
<path d="M268.82 198.297H249.883V217.234H268.82V198.297Z" fill="white" stroke="#263238" stroke-miterlimit="10"/>
<path d="M277.408 67.8916V53.3106C277.408 44.7086 270.434 37.7363 261.833 37.7363H203.727L203.671 37.9142C202.221 43.1272 198.887 46.518 195.188 46.518H193.067C189.368 46.518 186.033 43.1262 184.584 37.9142L184.536 37.7363H126.414C117.817 37.7363 110.847 44.7058 110.847 53.3033V67.8925L277.408 67.8916Z" fill="#DBDBDB" stroke="#263238" stroke-miterlimit="10" stroke-linecap="round" stroke-linejoin="round"/>
<path d="M288 128.161V96.86H285.168V56.7885C285.168 43.1468 274.109 32.0879 260.467 32.0879H127.788C114.147 32.0879 103.088 43.1468 103.088 56.7885V375.214C103.088 388.856 114.147 399.915 127.788 399.915H260.467C274.109 399.915 285.168 388.856 285.168 375.214V154.839H288V136.342H285.168V128.162H288V128.161ZM277.408 357.569C277.408 371.216 266.343 382.272 252.704 382.272H135.551C121.912 382.272 110.847 371.216 110.847 357.569V62.431C110.847 48.7921 121.912 37.7359 135.551 37.7359H184.536L184.584 37.9137C186.032 43.1267 189.368 46.5176 193.067 46.5176H195.187C198.886 46.5176 202.22 43.1258 203.67 37.9137L203.726 37.7359H252.703C266.342 37.7359 277.407 48.7921 277.407 62.431L277.408 357.569Z" fill="#00B386" stroke="#263238" stroke-miterlimit="10" stroke-linecap="round" stroke-linejoin="round"/>
<path d="M258.485 35.4902H129.77C116.614 35.4902 105.948 46.1561 105.948 59.3126V372.69C105.948 385.847 116.614 396.513 129.77 396.513H258.486C271.643 396.513 282.309 385.847 282.309 372.69V59.3126C282.309 46.1561 271.643 35.4902 258.485 35.4902ZM277.407 358.448C277.407 371.606 266.741 382.273 253.582 382.273H134.672C121.514 382.273 110.847 371.606 110.847 358.448V61.5534C110.847 48.3996 121.51 37.7365 134.664 37.7365H184.536L184.584 37.9143C186.032 43.1273 189.367 46.5181 193.067 46.5181H195.187C198.886 46.5181 202.22 43.1264 203.669 37.9143L203.726 37.7365H253.582C266.741 37.7365 277.407 48.4032 277.407 61.5616V358.448Z" fill="#263238" stroke="#263238" stroke-miterlimit="10" stroke-linecap="round" stroke-linejoin="round"/>
<path d="M195.938 38.9169C195.938 37.6364 194.9 36.5977 193.619 36.5977C192.337 36.5977 191.299 37.6355 191.299 38.9169C191.299 40.1973 192.337 41.2361 193.619 41.2361C194.9 41.2361 195.938 40.1973 195.938 38.9169Z" fill="white"/>
<path d="M125.651 47.804C125.651 50.1506 123.017 50.9951 123.006 52.7854V52.9076H125.563V53.6974H122.15V53.0298C122.15 50.5172 124.785 50.0284 124.785 47.8378C124.785 47.038 124.518 46.6148 123.873 46.6148C123.239 46.6148 122.961 47.0699 122.961 47.7593V48.4488H122.149V47.815C122.149 46.6248 122.694 45.8359 123.894 45.8359C125.107 45.8359 125.651 46.6148 125.651 47.804Z" fill="#263238"/>
<path d="M129.911 47.7931V47.9928C129.911 48.7936 129.589 49.3608 128.966 49.5943C129.622 49.8387 129.911 50.4288 129.911 51.2067V51.8077C129.911 52.997 129.356 53.7758 128.155 53.7758C126.966 53.7758 126.41 52.9979 126.41 51.8077V51.2742H127.222V51.8633C127.222 52.5638 127.511 52.986 128.134 52.986C128.768 52.986 129.046 52.5747 129.046 51.7858V51.1848C129.046 50.4178 128.723 50.0512 128.067 50.0284H127.6V49.2496H128.112C128.69 49.2277 129.047 48.861 129.047 48.1825V47.8259C129.047 47.0252 128.769 46.6148 128.135 46.6148C127.512 46.6148 127.223 47.048 127.223 47.7484V48.1488H126.411V47.7931C126.411 46.6029 126.966 45.8359 128.156 45.8359C129.355 45.8359 129.911 46.6029 129.911 47.7931Z" fill="#263238"/>
<path d="M131.591 48.3828V49.4617H130.757V48.3828H131.591ZM131.591 52.6181V53.697H130.757V52.6181H131.591Z" fill="#263238"/>
<path d="M133.349 49.0823C133.593 48.6592 133.983 48.4376 134.505 48.4376C135.506 48.4376 135.95 49.1717 135.95 50.2835V51.8065C135.95 52.9957 135.384 53.7746 134.194 53.7746C133.004 53.7746 132.449 52.9967 132.449 51.8065V51.2839H133.26V51.8621C133.26 52.5625 133.55 52.9848 134.172 52.9848C134.795 52.9848 135.084 52.5625 135.084 51.8621V50.35C135.084 49.6496 134.795 49.2274 134.172 49.2274C133.695 49.2274 133.372 49.4946 133.294 50.0618V50.2397H132.482L132.694 45.9141H135.762V46.692H133.471L133.349 49.0823Z" fill="#263238"/>
<path d="M140.276 47.7814V47.9264H139.465V47.7266C139.465 47.0262 139.176 46.6149 138.543 46.6149C137.886 46.6149 137.597 47.0372 137.597 47.8717V49.6172C137.808 49.0837 138.231 48.7837 138.854 48.7837C139.854 48.7837 140.299 49.5069 140.299 50.6295V51.8088C140.299 52.998 139.709 53.7769 138.52 53.7769C137.319 53.7769 136.729 52.9989 136.729 51.8088V47.8388C136.729 46.6049 137.286 45.8379 138.52 45.8379C139.721 45.8361 140.276 46.5921 140.276 47.7814ZM137.597 50.6952V51.8626C137.597 52.563 137.886 52.9852 138.52 52.9852C139.143 52.9852 139.443 52.563 139.443 51.8626V50.6952C139.443 49.9948 139.143 49.5725 138.52 49.5725C137.886 49.5716 137.597 49.9939 137.597 50.6952Z" fill="#263238"/>
<path d="M225.243 48.125H223.045V53.6189H225.243V48.125Z" fill="#263238"/>
<path d="M228.173 47.0234H225.975V53.6181H228.173V47.0234Z" fill="#263238"/>
<path d="M231.103 46.2422H228.905V53.6175H231.103V46.2422Z" fill="#263238"/>
<path d="M234.032 44.8828H231.835V53.6179H234.032V44.8828Z" fill="#263238"/>
<path d="M261.228 53.4657H248.042V45.4082H261.228V53.4657ZM248.774 52.7334H260.494V46.1405H248.774V52.7334Z" fill="#263238"/>
<path d="M256.832 46.9375H249.873V51.9362H256.832V46.9375Z" fill="#263238"/>
<path d="M262.428 48.4883H260.77V50.3862H262.428V48.4883Z" fill="#263238"/>
<path d="M243.208 51.7131C243.122 51.7131 243.034 51.6912 242.956 51.6438C240.273 50.0496 238.499 51.5298 238.425 51.5918C238.22 51.7696 237.91 51.7468 237.732 51.5426C237.554 51.3374 237.573 51.03 237.777 50.8513C237.872 50.7674 240.14 48.8248 243.46 50.7975C243.694 50.9361 243.771 51.2389 243.632 51.4723C243.539 51.6274 243.375 51.7131 243.208 51.7131Z" fill="#263238"/>
<path d="M244.2 50.0586C244.115 50.0586 244.027 50.0367 243.949 49.9893C240.069 47.6819 237.462 49.9145 237.434 49.9355C237.23 50.117 236.92 50.0951 236.74 49.8917C236.561 49.6874 236.58 49.3764 236.784 49.1977C236.816 49.1685 239.961 46.4744 244.452 49.1438C244.686 49.2825 244.763 49.5853 244.624 49.8187C244.531 49.9738 244.367 50.0586 244.2 50.0586Z" fill="#263238"/>
<path d="M245.102 48.142C245.016 48.142 244.929 48.1201 244.85 48.0726C239.936 45.1506 236.67 47.9012 236.533 48.0207C236.328 48.1985 236.017 48.1766 235.839 47.9723C235.66 47.768 235.68 47.4589 235.884 47.2801C235.923 47.2455 239.804 43.9258 245.354 47.2263C245.588 47.3649 245.666 47.6677 245.526 47.9012C245.433 48.0571 245.269 48.142 245.102 48.142Z" fill="#263238"/>
<path d="M241.725 52.5395C241.725 53.2217 241.172 53.7744 240.491 53.7744C239.808 53.7744 239.255 53.2217 239.255 52.5395C239.255 51.8574 239.808 51.3047 240.491 51.3047C241.172 51.3047 241.725 51.8574 241.725 52.5395Z" fill="#263238"/>
<path d="M247.398 361.518L251.842 357.073C252.377 356.539 252.377 355.674 251.842 355.139C251.308 354.605 250.443 354.605 249.908 355.139L245.464 359.583L241.02 355.139C240.485 354.605 239.62 354.605 239.085 355.139C238.551 355.674 238.551 356.539 239.085 357.073L243.53 361.518L239.085 365.962C238.551 366.496 238.551 367.362 239.085 367.896C239.353 368.163 239.703 368.297 240.053 368.297C240.403 368.297 240.753 368.163 241.02 367.896L245.464 363.452L249.908 367.896C250.175 368.163 250.526 368.297 250.876 368.297C251.226 368.297 251.576 368.163 251.843 367.896C252.378 367.362 252.378 366.496 251.843 365.962L247.398 361.518Z" fill="#263238"/>
<path d="M138.424 307.605V298.617C138.37 298.645 138.262 298.686 138.102 298.741C137.943 298.796 137.767 298.848 137.575 298.898C137.384 298.949 137.208 298.997 137.048 299.042C136.888 299.088 136.777 299.124 136.713 299.152V297.742C136.841 297.696 137.001 297.633 137.192 297.55C137.384 297.468 137.587 297.375 137.8 297.27C138.015 297.165 138.215 297.049 138.402 296.921C138.589 296.793 138.742 296.661 138.861 296.523H140.311V307.604H138.424V307.605Z" fill="#263238"/>
<path d="M189.514 307.604V306.264L192.25 302.036C192.45 301.726 192.639 301.43 192.817 301.146C192.995 300.864 193.141 300.57 193.255 300.264C193.369 299.958 193.426 299.623 193.426 299.258C193.426 298.848 193.353 298.533 193.207 298.315C193.061 298.096 192.833 297.986 192.523 297.986C192.231 297.986 192.003 298.068 191.839 298.233C191.675 298.398 191.563 298.611 191.504 298.876C191.444 299.14 191.415 299.432 191.415 299.751V300.217H189.555V299.725C189.555 299.067 189.652 298.491 189.848 297.995C190.044 297.498 190.357 297.107 190.785 296.824C191.214 296.542 191.775 296.4 192.468 296.4C193.416 296.4 194.127 296.656 194.602 297.166C195.076 297.678 195.313 298.389 195.313 299.301C195.313 299.757 195.249 300.17 195.122 300.539C194.994 300.907 194.825 301.261 194.615 301.599C194.406 301.936 194.178 302.283 193.931 302.638L191.661 306.086H195.026V307.604H189.514Z" fill="#263238"/>
<path d="M242.885 307.768C242.192 307.768 241.634 307.638 241.21 307.379C240.786 307.119 240.478 306.75 240.286 306.27C240.095 305.791 239.999 305.233 239.999 304.595V304.212H241.873C241.873 304.238 241.873 304.285 241.873 304.348C241.873 304.411 241.873 304.476 241.873 304.539C241.882 304.887 241.914 305.182 241.969 305.429C242.024 305.675 242.126 305.862 242.276 305.99C242.427 306.118 242.634 306.182 242.899 306.182C243.182 306.182 243.393 306.113 243.535 305.975C243.676 305.84 243.772 305.638 243.822 305.374C243.872 305.109 243.897 304.794 243.897 304.43C243.897 303.865 243.808 303.42 243.63 303.096C243.452 302.773 243.108 302.597 242.597 302.57C242.579 302.57 242.536 302.57 242.467 302.57C242.398 302.57 242.336 302.57 242.282 302.57V301.052C242.327 301.052 242.375 301.052 242.426 301.052C242.476 301.052 242.523 301.052 242.569 301.052C243.071 301.042 243.417 300.908 243.609 300.648C243.8 300.389 243.896 299.971 243.896 299.396C243.896 298.931 243.825 298.566 243.684 298.302C243.543 298.037 243.271 297.905 242.87 297.905C242.478 297.905 242.216 298.051 242.084 298.343C241.952 298.635 241.88 299.013 241.872 299.478C241.872 299.542 241.872 299.609 241.872 299.677C241.872 299.746 241.872 299.816 241.872 299.889H239.998V299.355C239.998 298.726 240.109 298.191 240.334 297.747C240.557 297.306 240.883 296.969 241.311 296.735C241.74 296.503 242.26 296.387 242.871 296.387C243.5 296.387 244.029 296.501 244.458 296.729C244.886 296.957 245.212 297.287 245.435 297.72C245.659 298.153 245.771 298.685 245.771 299.314C245.771 299.971 245.634 300.509 245.361 300.928C245.087 301.348 244.736 301.623 244.307 301.749C244.599 301.84 244.854 301.997 245.073 302.222C245.292 302.445 245.464 302.736 245.587 303.097C245.71 303.458 245.772 303.892 245.772 304.404C245.772 305.07 245.678 305.655 245.491 306.162C245.304 306.669 244.999 307.063 244.574 307.345C244.151 307.626 243.588 307.768 242.885 307.768Z" fill="#263238"/>
<path d="M139.341 327.246V324.523H136.03V322.909L138.917 316.164H141.119V323.019H142.255V324.523H141.119V327.245H139.341V327.246ZM137.618 323.019H139.342V318.203L137.618 323.019Z" fill="#263238"/>
<path d="M192.386 327.409C191.648 327.409 191.075 327.273 190.67 327C190.264 326.725 189.984 326.337 189.829 325.837C189.673 325.335 189.597 324.747 189.597 324.071H191.443C191.443 324.445 191.468 324.776 191.519 325.063C191.569 325.351 191.67 325.575 191.82 325.734C191.971 325.893 192.192 325.968 192.483 325.959C192.802 325.959 193.029 325.857 193.161 325.652C193.293 325.445 193.377 325.159 193.413 324.79C193.45 324.42 193.468 323.989 193.468 323.497C193.468 323.068 193.443 322.694 193.392 322.376C193.342 322.056 193.244 321.808 193.099 321.631C192.953 321.453 192.725 321.363 192.415 321.363C192.149 321.363 191.931 321.453 191.758 321.631C191.585 321.808 191.457 322.043 191.375 322.335H189.747L189.857 316.164H194.836V317.86H191.443L191.334 320.528C191.471 320.364 191.669 320.232 191.929 320.131C192.189 320.031 192.478 319.972 192.798 319.953C193.381 319.926 193.856 320.049 194.221 320.323C194.585 320.596 194.854 320.992 195.028 321.513C195.201 322.033 195.288 322.653 195.288 323.373C195.288 323.958 195.249 324.495 195.172 324.989C195.094 325.481 194.95 325.907 194.74 326.267C194.531 326.627 194.236 326.907 193.858 327.108C193.479 327.309 192.988 327.409 192.386 327.409Z" fill="#263238"/>
<path d="M242.947 327.396C242.263 327.396 241.706 327.237 241.278 326.918C240.849 326.598 240.536 326.163 240.341 325.611C240.145 325.059 240.047 324.441 240.047 323.757V319.872C240.047 319.152 240.129 318.502 240.294 317.922C240.458 317.343 240.75 316.885 241.169 316.547C241.589 316.211 242.176 316.041 242.934 316.041C243.581 316.041 244.108 316.149 244.513 316.363C244.919 316.577 245.217 316.889 245.409 317.3C245.601 317.71 245.696 318.216 245.696 318.818C245.696 318.845 245.699 318.876 245.703 318.907C245.707 318.939 245.71 318.969 245.71 318.997H243.891C243.891 318.504 243.831 318.135 243.713 317.889C243.594 317.642 243.339 317.519 242.947 317.519C242.71 317.519 242.518 317.592 242.372 317.738C242.226 317.884 242.119 318.124 242.05 318.456C241.982 318.789 241.948 319.234 241.948 319.79V321.117C242.076 320.907 242.27 320.741 242.529 320.617C242.789 320.494 243.093 320.433 243.438 320.433C244.04 320.424 244.514 320.556 244.861 320.83C245.207 321.104 245.456 321.482 245.606 321.965C245.756 322.449 245.831 323 245.831 323.621C245.831 324.341 245.74 324.986 245.558 325.556C245.375 326.126 245.074 326.575 244.655 326.904C244.237 327.232 243.667 327.396 242.947 327.396ZM242.96 325.933C243.225 325.933 243.425 325.85 243.562 325.686C243.699 325.522 243.795 325.294 243.849 325.002C243.904 324.71 243.932 324.368 243.932 323.976C243.932 323.575 243.915 323.217 243.884 322.902C243.852 322.587 243.767 322.337 243.631 322.15C243.494 321.964 243.266 321.87 242.947 321.87C242.792 321.87 242.647 321.899 242.516 321.958C242.384 322.017 242.27 322.093 242.174 322.184C242.078 322.275 242.003 322.367 241.949 322.458V324.195C241.949 324.505 241.978 324.793 242.037 325.056C242.097 325.322 242.202 325.533 242.352 325.693C242.502 325.853 242.705 325.933 242.96 325.933Z" fill="#263238"/>
<path d="M137.296 346.886L139.498 337.256H136.502V335.805H141.359V336.967L139.129 346.885H137.296V346.886Z" fill="#263238"/>
<path d="M192.352 347.037C191.649 347.037 191.084 346.896 190.655 346.613C190.227 346.33 189.921 345.935 189.739 345.429C189.557 344.923 189.465 344.337 189.465 343.671C189.465 343.352 189.495 343.058 189.554 342.789C189.613 342.52 189.7 342.275 189.814 342.057C189.928 341.838 190.066 341.644 190.231 341.475C190.396 341.306 190.583 341.167 190.792 341.058C190.464 340.83 190.188 340.517 189.964 340.12C189.741 339.725 189.624 339.22 189.616 338.609C189.616 338.007 189.713 337.486 189.909 337.042C190.106 336.601 190.408 336.263 190.82 336.031C191.23 335.798 191.741 335.682 192.352 335.682C192.972 335.682 193.483 335.8 193.884 336.038C194.285 336.275 194.584 336.613 194.78 337.05C194.976 337.487 195.069 338.007 195.06 338.609C195.051 339.23 194.939 339.735 194.726 340.128C194.511 340.521 194.24 340.831 193.911 341.059C194.121 341.168 194.308 341.307 194.472 341.476C194.636 341.644 194.775 341.838 194.889 342.057C195.003 342.276 195.09 342.521 195.149 342.79C195.208 343.059 195.238 343.352 195.238 343.672C195.247 344.337 195.158 344.924 194.971 345.43C194.784 345.936 194.479 346.331 194.055 346.614C193.631 346.896 193.063 347.037 192.352 347.037ZM192.352 345.601C192.653 345.601 192.878 345.509 193.029 345.327C193.179 345.145 193.277 344.915 193.323 344.636C193.369 344.358 193.391 344.073 193.391 343.78C193.401 343.47 193.378 343.172 193.323 342.885C193.268 342.598 193.165 342.363 193.016 342.181C192.865 341.998 192.644 341.907 192.352 341.907C192.069 341.907 191.852 341.998 191.702 342.181C191.551 342.363 191.446 342.596 191.387 342.879C191.328 343.162 191.298 343.463 191.298 343.781C191.298 344.073 191.322 344.361 191.372 344.643C191.422 344.926 191.526 345.156 191.68 345.334C191.837 345.511 192.06 345.601 192.352 345.601ZM192.352 340.306C192.58 340.297 192.759 340.217 192.892 340.067C193.024 339.916 193.118 339.708 193.173 339.444C193.227 339.179 193.255 338.878 193.255 338.541C193.255 338.122 193.186 337.78 193.049 337.515C192.913 337.251 192.68 337.118 192.352 337.118C192.032 337.118 191.797 337.251 191.648 337.515C191.497 337.78 191.422 338.117 191.422 338.527C191.422 338.865 191.451 339.168 191.51 339.436C191.569 339.706 191.668 339.915 191.805 340.067C191.941 340.218 192.124 340.298 192.352 340.306Z" fill="#263238"/>
<path d="M192.352 366.291C191.704 366.291 191.169 366.154 190.745 365.882C190.321 365.607 190.002 365.229 189.787 364.746C189.573 364.263 189.465 363.705 189.465 363.077V358.165C189.465 357.518 189.568 356.95 189.774 356.462C189.979 355.974 190.293 355.594 190.718 355.321C191.142 355.046 191.687 354.91 192.352 354.91C193.018 354.91 193.563 355.046 193.986 355.321C194.41 355.594 194.725 355.974 194.93 356.462C195.135 356.95 195.237 357.518 195.237 358.165V363.077C195.237 363.706 195.13 364.263 194.915 364.746C194.701 365.229 194.382 365.607 193.958 365.882C193.536 366.155 192.999 366.291 192.352 366.291ZM192.352 364.663C192.635 364.663 192.844 364.576 192.981 364.404C193.118 364.231 193.209 364.021 193.255 363.775C193.3 363.529 193.323 363.287 193.323 363.05V358.193C193.323 357.939 193.302 357.684 193.262 357.435C193.221 357.184 193.132 356.971 192.996 356.798C192.859 356.626 192.645 356.539 192.353 356.539C192.061 356.539 191.847 356.626 191.71 356.798C191.573 356.971 191.485 357.184 191.443 357.435C191.402 357.685 191.382 357.939 191.382 358.193V363.05C191.382 363.287 191.407 363.529 191.458 363.775C191.508 364.022 191.602 364.231 191.739 364.404C191.873 364.577 192.078 364.663 192.352 364.663Z" fill="#263238"/>
<path d="M242.755 347.038C242.117 347.038 241.592 346.929 241.182 346.71C240.772 346.492 240.471 346.172 240.279 345.752C240.088 345.333 239.992 344.822 239.992 344.22C239.992 344.202 239.992 344.179 239.992 344.152C239.992 344.124 239.992 344.097 239.992 344.069H241.798C241.798 344.562 241.859 344.931 241.982 345.178C242.105 345.424 242.367 345.547 242.769 345.547C243.015 345.547 243.207 345.474 243.343 345.328C243.48 345.182 243.58 344.94 243.644 344.603C243.708 344.266 243.74 343.823 243.74 343.276V341.949C243.612 342.159 243.421 342.323 243.166 342.442C242.91 342.56 242.605 342.624 242.249 342.633C241.656 342.642 241.184 342.503 240.833 342.216C240.482 341.929 240.231 341.539 240.08 341.046C239.93 340.554 239.855 339.998 239.855 339.377C239.855 338.648 239.951 338.007 240.142 337.456C240.334 336.905 240.644 336.471 241.073 336.156C241.501 335.841 242.062 335.684 242.755 335.684C243.439 335.684 243.995 335.837 244.424 336.142C244.853 336.448 245.166 336.869 245.361 337.408C245.557 337.946 245.655 338.562 245.655 339.254V343.18C245.655 343.901 245.57 344.554 245.402 345.137C245.233 345.721 244.941 346.183 244.526 346.525C244.112 346.867 243.521 347.038 242.755 347.038ZM242.769 341.197C243.024 341.197 243.227 341.134 243.378 341.005C243.529 340.877 243.649 340.741 243.74 340.595V338.871C243.74 338.552 243.713 338.263 243.658 338.003C243.603 337.743 243.505 337.532 243.363 337.374C243.222 337.214 243.02 337.134 242.754 337.134C242.499 337.134 242.301 337.216 242.16 337.38C242.018 337.544 241.92 337.772 241.865 338.064C241.81 338.356 241.783 338.698 241.783 339.09C241.783 339.482 241.799 339.838 241.831 340.157C241.863 340.476 241.948 340.73 242.084 340.916C242.222 341.103 242.45 341.197 242.769 341.197Z" fill="#263238"/>
<path d="M179.859 256.672V245.592H184.511V247.015H181.884V250.202H183.95V251.611H181.884V255.277H184.538V256.672H179.859Z" fill="white"/>
<path d="M185.714 256.67V245.59H187.123L189.818 251.91V245.59H191.487V256.67H190.147L187.438 250.049V256.67H185.714Z" fill="white"/>
<path d="M194.278 256.671V247.081H192.513V245.59H198.04V247.081H196.303V256.671H194.278Z" fill="white"/>
<path d="M199.052 256.67V245.59H203.703V247.013H201.077V250.2H203.143V251.609H201.077V255.275H203.731V256.67H199.052Z" fill="white"/>
<path d="M204.907 256.67V245.59H207.561C208.309 245.59 208.94 245.678 209.455 245.856C209.971 246.034 210.363 246.337 210.632 246.766C210.901 247.195 211.035 247.778 211.035 248.517C211.035 248.964 210.994 249.366 210.912 249.72C210.83 250.077 210.69 250.38 210.494 250.63C210.298 250.881 210.026 251.075 209.68 251.212L211.226 256.67H209.201L207.86 251.595H206.93V256.67H204.907ZM206.932 250.322H207.562C207.954 250.322 208.266 250.265 208.499 250.151C208.731 250.037 208.898 249.855 208.998 249.604C209.098 249.353 209.148 249.031 209.148 248.639C209.148 248.082 209.046 247.666 208.841 247.386C208.635 247.108 208.246 246.97 207.671 246.97H206.932V250.322Z" fill="white"/>
<path d="M152.519 96.9295L150.587 87.3262H152.14L153.409 94.1197L154.594 87.3262H156.183L154.25 96.9295H152.519Z" fill="#263238"/>
<path d="M157.166 96.9295V87.3262H161.197V88.5592H158.921V91.3216H160.711V92.5428H158.921V95.7202H161.222V96.9295H157.166Z" fill="#263238"/>
<path d="M162.24 96.9295V87.3262H164.54C165.188 87.3262 165.736 87.4037 166.182 87.5578C166.629 87.712 166.968 87.9746 167.202 88.3458C167.435 88.7179 167.552 89.2231 167.552 89.8634C167.552 90.251 167.516 90.5984 167.445 90.9067C167.374 91.2149 167.253 91.4776 167.084 91.6956C166.914 91.9126 166.679 92.0804 166.379 92.199L167.719 96.9295H165.964L164.802 92.531H163.996V96.9295H162.24ZM163.995 91.4283H164.541C164.88 91.4283 165.151 91.3791 165.353 91.2806C165.555 91.1821 165.699 91.0234 165.786 90.8064C165.874 90.5893 165.917 90.3102 165.917 89.9701C165.917 89.4876 165.828 89.1265 165.65 88.8857C165.473 88.644 165.134 88.5245 164.637 88.5245H163.997V91.4283H163.995Z" fill="#263238"/>
<path d="M168.916 96.9295V87.3262H170.646V96.9295H168.916Z" fill="#263238"/>
<path d="M172.128 96.9295V87.3262H176.076V88.5355H173.883V91.3335H175.673V92.5547H173.883V96.9295H172.128Z" fill="#263238"/>
<path d="M177.036 96.9295V87.3262H178.767V96.9295H177.036Z" fill="#263238"/>
<path d="M182.834 97.0592C182.131 97.0592 181.579 96.9215 181.18 96.6443C180.78 96.3679 180.502 95.9904 180.344 95.5116C180.186 95.0337 180.106 94.4828 180.106 93.8581V90.4317C180.106 89.776 180.186 89.2069 180.344 88.7245C180.502 88.2429 180.781 87.8708 181.18 87.61C181.579 87.3492 182.13 87.2188 182.834 87.2188C183.499 87.2188 184.018 87.3318 184.394 87.5571C184.769 87.7824 185.036 88.1043 185.194 88.5238C185.352 88.9424 185.431 89.4285 185.431 89.9821V90.7883H183.747V89.9584C183.747 89.6894 183.733 89.4449 183.705 89.2233C183.678 89.0026 183.603 88.8257 183.481 88.6962C183.358 88.5658 183.147 88.5001 182.846 88.5001C182.546 88.5001 182.327 88.5694 182.189 88.708C182.05 88.8467 181.961 89.0318 181.921 89.2653C181.882 89.4978 181.862 89.7614 181.862 90.0532V94.2266C181.862 94.574 181.889 94.8604 181.946 95.0857C182.002 95.3109 182.102 95.4815 182.248 95.5955C182.394 95.7095 182.593 95.7669 182.846 95.7669C183.139 95.7669 183.347 95.6976 183.469 95.559C183.592 95.4213 183.669 95.2371 183.701 95.0081C183.732 94.7783 183.748 94.522 183.748 94.2375V93.372H185.432V94.1426C185.432 94.7117 185.357 95.2161 185.206 95.6547C185.057 96.0934 184.794 96.4372 184.418 96.6862C184.042 96.9343 183.514 97.0592 182.834 97.0592Z" fill="#263238"/>
<path d="M186.165 96.9295L188.086 87.3262H189.959L191.88 96.9295H190.255L189.876 94.7125H188.204L187.813 96.9295H186.165ZM188.383 93.598H189.687L189.035 89.567L188.383 93.598Z" fill="#263238"/>
<path d="M193.35 96.9295V88.6185H191.82V87.3262H196.61V88.6185H195.104V96.9295H193.35Z" fill="#263238"/>
<path d="M197.535 96.9295V87.3262H199.266V96.9295H197.535Z" fill="#263238"/>
<path d="M203.357 97.0601C202.677 97.0601 202.136 96.9334 201.733 96.6807C201.33 96.4281 201.041 96.0642 200.867 95.59C200.694 95.1158 200.606 94.5549 200.606 93.9064V90.3141C200.606 89.6666 200.694 89.1102 200.867 88.6479C201.041 88.1855 201.33 87.8316 201.733 87.5863C202.136 87.341 202.677 87.2188 203.357 87.2188C204.053 87.2188 204.599 87.341 204.999 87.5863C205.398 87.8316 205.686 88.1855 205.864 88.6479C206.042 89.1102 206.131 89.6656 206.131 90.3141V93.9183C206.131 94.5585 206.042 95.1139 205.864 95.5836C205.686 96.0542 205.397 96.4181 204.999 96.6744C204.599 96.9315 204.052 97.0601 203.357 97.0601ZM203.357 95.7678C203.649 95.7678 203.865 95.7049 204.003 95.5781C204.14 95.4514 204.234 95.2781 204.282 95.0565C204.329 94.8358 204.353 94.5941 204.353 94.3333V89.911C204.353 89.6419 204.329 89.4012 204.282 89.1878C204.234 88.9743 204.141 88.8065 204.003 88.6834C203.865 88.5612 203.649 88.4992 203.357 88.4992C203.08 88.4992 202.871 88.5603 202.729 88.6834C202.586 88.8056 202.492 88.9734 202.445 89.1878C202.397 89.4012 202.374 89.6419 202.374 89.911V94.3333C202.374 94.5941 202.395 94.8358 202.439 95.0565C202.482 95.2781 202.575 95.4523 202.718 95.5781C202.859 95.7049 203.072 95.7678 203.357 95.7678Z" fill="#263238"/>
<path d="M207.424 96.9295V87.3262H208.645L210.981 92.8036V87.3262H212.427V96.9295H211.265L208.918 91.1912V96.9295H207.424Z" fill="#263238"/>
<path d="M219.35 97.0592C218.647 97.0592 218.095 96.9215 217.696 96.6443C217.297 96.3679 217.019 95.9904 216.861 95.5116C216.702 95.0337 216.623 94.4828 216.623 93.8581V90.4317C216.623 89.776 216.702 89.2069 216.861 88.7245C217.019 88.2429 217.298 87.8708 217.696 87.61C218.096 87.3492 218.647 87.2188 219.35 87.2188C220.015 87.2188 220.534 87.3318 220.909 87.5571C221.284 87.7824 221.552 88.1043 221.709 88.5238C221.868 88.9424 221.946 89.4285 221.946 89.9821V90.7883H220.263V89.9584C220.263 89.6894 220.248 89.4449 220.221 89.2233C220.194 89.0026 220.119 88.8257 219.997 88.6962C219.873 88.5658 219.663 88.5001 219.362 88.5001C219.062 88.5001 218.843 88.5694 218.704 88.708C218.566 88.8467 218.476 89.0318 218.437 89.2653C218.398 89.4978 218.378 89.7614 218.378 90.0532V94.2266C218.378 94.574 218.405 94.8604 218.462 95.0857C218.517 95.3109 218.618 95.4815 218.764 95.5955C218.909 95.7095 219.109 95.7669 219.362 95.7669C219.655 95.7669 219.862 95.6976 219.985 95.559C220.108 95.4213 220.184 95.2371 220.216 95.0081C220.247 94.7783 220.264 94.522 220.264 94.2375V93.372H221.947V94.1426C221.947 94.7117 221.873 95.2161 221.722 95.6547C221.572 96.0934 221.31 96.4372 220.934 96.6862C220.557 96.9343 220.029 97.0592 219.35 97.0592Z" fill="#263238"/>
<path d="M225.777 97.0601C225.097 97.0601 224.556 96.9334 224.153 96.6807C223.75 96.4281 223.46 96.0642 223.287 95.59C223.114 95.1158 223.026 94.5549 223.026 93.9064V90.3141C223.026 89.6666 223.114 89.1102 223.287 88.6479C223.46 88.1855 223.75 87.8316 224.153 87.5863C224.556 87.341 225.097 87.2188 225.777 87.2188C226.473 87.2188 227.019 87.341 227.419 87.5863C227.817 87.8316 228.106 88.1855 228.284 88.6479C228.462 89.1102 228.551 89.6656 228.551 90.3141V93.9183C228.551 94.5585 228.462 95.1139 228.284 95.5836C228.106 96.0542 227.817 96.4181 227.419 96.6744C227.019 96.9315 226.472 97.0601 225.777 97.0601ZM225.777 95.7678C226.069 95.7678 226.285 95.7049 226.423 95.5781C226.56 95.4514 226.654 95.2781 226.702 95.0565C226.749 94.8358 226.773 94.5941 226.773 94.3333V89.911C226.773 89.6419 226.749 89.4012 226.702 89.1878C226.654 88.9743 226.561 88.8065 226.423 88.6834C226.285 88.5612 226.069 88.4992 225.777 88.4992C225.5 88.4992 225.291 88.5603 225.149 88.6834C225.006 88.8056 224.911 88.9734 224.864 89.1878C224.816 89.4012 224.793 89.6419 224.793 89.911V94.3333C224.793 94.5941 224.814 94.8358 224.858 95.0565C224.901 95.2781 224.994 95.4523 225.137 95.5781C225.279 95.7049 225.491 95.7678 225.777 95.7678Z" fill="#263238"/>
<path d="M229.842 96.9295V87.3262H232.107C232.888 87.3262 233.499 87.4329 233.938 87.6463C234.377 87.8597 234.689 88.188 234.875 88.6303C235.06 89.0727 235.154 89.6344 235.154 90.3139V93.8233C235.154 94.5191 235.06 95.0973 234.875 95.5597C234.689 96.0221 234.38 96.3659 233.95 96.5912C233.519 96.8164 232.928 96.9295 232.177 96.9295H229.842ZM231.597 95.7084H232.13C232.534 95.7084 232.823 95.6372 232.996 95.495C233.169 95.3527 233.277 95.1457 233.316 94.873C233.356 94.6003 233.375 94.2665 233.375 93.8707V90.1953C233.375 89.8077 233.348 89.4958 233.292 89.2587C233.237 89.0216 233.122 88.8483 232.949 88.737C232.774 88.6258 232.493 88.571 232.107 88.571H231.596V95.7084H231.597Z" fill="#263238"/>
<path d="M236.446 96.9295V87.3262H240.477V88.5592H238.201V91.3216H239.991V92.5428H238.201V95.7202H240.502V96.9295H236.446Z" fill="#263238"/>
<path d="M366.436 21.3672V66.2604" stroke="#263238" stroke-miterlimit="10" stroke-linecap="round" stroke-linejoin="round" stroke-dasharray="5 5"/>
<path d="M366.435 142.877V180.693C366.435 193.197 356.299 203.333 343.796 203.333H296.203" stroke="#263238" stroke-linecap="round" stroke-linejoin="round" stroke-dasharray="5 5"/>
<path d="M297.866 197.648L288.022 203.332L297.866 209.017V197.648Z" fill="#263238"/>
<path d="M416.919 86.3787L335.984 69.7207L324.06 127.658L404.995 144.316L416.919 86.3787Z" fill="#263238"/>
<path d="M412.73 80.99L331.795 64.332L319.87 122.269L400.805 138.927L412.73 80.99Z" fill="white" stroke="#263238" stroke-miterlimit="10"/>
<path d="M331.789 64.3203L366.295 101.616L412.722 80.9753" stroke="#263238" stroke-miterlimit="10" stroke-linecap="round" stroke-linejoin="round"/>
</svg>
