<svg width="18" height="17" viewBox="0 0 18 17" fill="none" xmlns="http://www.w3.org/2000/svg">
<path d="M2.8916 16.4268H14.9941C16.9014 16.4268 17.8945 15.4424 17.8945 13.5615V2.86523C17.8945 0.984375 16.9014 0 14.9941 0H2.8916C0.993164 0 0 0.975586 0 2.86523V13.5615C0 15.4424 0.993164 16.4268 2.8916 16.4268ZM2.88281 14.6777C2.15332 14.6777 1.74902 14.2998 1.74902 13.5264V5.44043C1.74902 4.66699 2.15332 4.28906 2.88281 4.28906H15.0029C15.7324 4.28906 16.1367 4.66699 16.1367 5.44043V13.5264C16.1367 14.2998 15.7324 14.6777 15.0029 14.6777H2.88281ZM7.25098 7.32129H7.76953C8.08594 7.32129 8.19141 7.22461 8.19141 6.91699V6.39844C8.19141 6.08203 8.08594 5.98535 7.76953 5.98535H7.25098C6.93457 5.98535 6.8291 6.08203 6.8291 6.39844V6.91699C6.8291 7.22461 6.93457 7.32129 7.25098 7.32129ZM10.125 7.32129H10.6436C10.9512 7.32129 11.0566 7.22461 11.0566 6.91699V6.39844C11.0566 6.08203 10.9512 5.98535 10.6436 5.98535H10.125C9.80859 5.98535 9.70312 6.08203 9.70312 6.39844V6.91699C9.70312 7.22461 9.80859 7.32129 10.125 7.32129ZM12.9902 7.32129H13.5088C13.8252 7.32129 13.9307 7.22461 13.9307 6.91699V6.39844C13.9307 6.08203 13.8252 5.98535 13.5088 5.98535H12.9902C12.6826 5.98535 12.5771 6.08203 12.5771 6.39844V6.91699C12.5771 7.22461 12.6826 7.32129 12.9902 7.32129ZM4.38574 10.1514H4.89551C5.21191 10.1514 5.31738 10.0547 5.31738 9.73828V9.21973C5.31738 8.91211 5.21191 8.81543 4.89551 8.81543H4.38574C4.06934 8.81543 3.96387 8.91211 3.96387 9.21973V9.73828C3.96387 10.0547 4.06934 10.1514 4.38574 10.1514ZM7.25098 10.1514H7.76953C8.08594 10.1514 8.19141 10.0547 8.19141 9.73828V9.21973C8.19141 8.91211 8.08594 8.81543 7.76953 8.81543H7.25098C6.93457 8.81543 6.8291 8.91211 6.8291 9.21973V9.73828C6.8291 10.0547 6.93457 10.1514 7.25098 10.1514ZM10.125 10.1514H10.6436C10.9512 10.1514 11.0566 10.0547 11.0566 9.73828V9.21973C11.0566 8.91211 10.9512 8.81543 10.6436 8.81543H10.125C9.80859 8.81543 9.70312 8.91211 9.70312 9.21973V9.73828C9.70312 10.0547 9.80859 10.1514 10.125 10.1514ZM12.9902 10.1514H13.5088C13.8252 10.1514 13.9307 10.0547 13.9307 9.73828V9.21973C13.9307 8.91211 13.8252 8.81543 13.5088 8.81543H12.9902C12.6826 8.81543 12.5771 8.91211 12.5771 9.21973V9.73828C12.5771 10.0547 12.6826 10.1514 12.9902 10.1514ZM4.38574 12.9727H4.89551C5.21191 12.9727 5.31738 12.876 5.31738 12.5684V12.0498C5.31738 11.7334 5.21191 11.6367 4.89551 11.6367H4.38574C4.06934 11.6367 3.96387 11.7334 3.96387 12.0498V12.5684C3.96387 12.876 4.06934 12.9727 4.38574 12.9727ZM7.25098 12.9727H7.76953C8.08594 12.9727 8.19141 12.876 8.19141 12.5684V12.0498C8.19141 11.7334 8.08594 11.6367 7.76953 11.6367H7.25098C6.93457 11.6367 6.8291 11.7334 6.8291 12.0498V12.5684C6.8291 12.876 6.93457 12.9727 7.25098 12.9727ZM10.125 12.9727H10.6436C10.9512 12.9727 11.0566 12.876 11.0566 12.5684V12.0498C11.0566 11.7334 10.9512 11.6367 10.6436 11.6367H10.125C9.80859 11.6367 9.70312 11.7334 9.70312 12.0498V12.5684C9.70312 12.876 9.80859 12.9727 10.125 12.9727Z" fill="#00B386"/>
</svg>
