<svg width="15" height="15" viewBox="0 0 15 15" fill="none" xmlns="http://www.w3.org/2000/svg">
<g opacity="0.7">
<path d="M3.33333 11.6667H4.28333L10.8 5.15L9.85 4.2L3.33333 10.7167V11.6667ZM2 13V10.1667L10.8 1.38333C10.9333 1.26111 11.0806 1.16667 11.2417 1.1C11.4028 1.03333 11.5722 1 11.75 1C11.9278 1 12.1 1.03333 12.2667 1.1C12.4333 1.16667 12.5778 1.26667 12.7 1.4L13.6167 2.33333C13.75 2.45556 13.8472 2.6 13.9083 2.76667C13.9694 2.93333 14 3.1 14 3.26667C14 3.44444 13.9694 3.61389 13.9083 3.775C13.8472 3.93611 13.75 4.08333 13.6167 4.21667L4.83333 13H2ZM10.3167 4.68333L9.85 4.2L10.8 5.15L10.3167 4.68333Z" fill="#00B386"/>
</g>
</svg>
