<svg width="50" height="50" viewBox="0 0 50 50" fill="none" xmlns="http://www.w3.org/2000/svg">
<g clip-path="url(#clip0_1003_4133)">
<path fill-rule="evenodd" clip-rule="evenodd" d="M35.2253 51.0449V46.4637H23.467C11.5152 46.4637 5.00005 36.6052 5.00005 26.7124C5.00005 26.3278 5.31183 26.016 5.69644 26.016C6.08105 26.016 6.39284 26.3278 6.39284 26.7124C6.39284 36.0646 12.4947 45.0709 23.467 45.0709H36.618V48.0963L40.9932 44.4985L36.618 40.7113V43.1928H23.467C20.5944 43.1928 17.3998 42.0169 14.9204 40.089C12.4409 38.161 10.5818 35.4011 10.5818 32.1892C10.5818 31.8046 10.8936 31.4928 11.2782 31.4928C11.6628 31.4928 11.9746 31.8046 11.9746 32.1892C11.9746 34.8346 13.5103 37.2282 15.7754 38.9895C18.0406 40.7509 20.9404 41.8 23.467 41.8H35.2253V37.6636L43.1528 44.5258L35.2253 51.0449Z" fill="#00B386"/>
<path fill-rule="evenodd" clip-rule="evenodd" d="M15.0841 -1V3.6921H26.8424C38.8077 3.6921 45.3094 13.7872 45.3094 23.8887C45.3094 24.2733 44.9976 24.5851 44.613 24.5851C44.2283 24.5851 43.9166 24.2733 43.9166 23.8887C43.9166 14.2954 37.8011 5.08489 26.8424 5.08489H13.6914V1.99248L9.30188 5.68646L13.6914 9.57485V7.03944H26.8424C29.7195 7.03944 32.9162 8.24451 35.3951 10.2171C37.8757 12.191 39.7276 15.0104 39.7276 18.2838C39.7276 18.6685 39.4158 18.9802 39.0312 18.9802C38.6466 18.9802 38.3348 18.6685 38.3348 18.2838C38.3348 15.5632 36.7919 13.1086 34.5279 11.307C32.2623 9.50413 29.3645 8.43223 26.8424 8.43223H15.0841V12.6693L7.1709 5.65942L15.0841 -1Z" fill="#00B386"/>
<path fill-rule="evenodd" clip-rule="evenodd" d="M24.7175 15.2423C19.2705 15.2423 14.8548 19.7413 14.8548 25.2911C14.8548 30.841 19.2705 35.34 24.7175 35.34C30.1646 35.34 34.5803 30.841 34.5803 25.2911C34.5803 19.7413 30.1646 15.2423 24.7175 15.2423ZM24.7175 13.842C18.5114 13.842 13.4804 18.968 13.4804 25.2911C13.4804 31.6143 18.5114 36.7402 24.7175 36.7402C30.9236 36.7402 35.9546 31.6143 35.9546 25.2911C35.9546 18.968 30.9236 13.842 24.7175 13.842Z" fill="#00B386"/>
<path d="M28.7399 22.2059L28.3318 23.6378H20.689L21.0971 22.2059H28.7399ZM25.0205 31.2267L20.8464 26.1887L20.8347 25.0582H22.9043C23.4212 25.0582 23.8584 24.979 24.216 24.8205C24.5735 24.662 24.8456 24.4321 25.0322 24.1306C25.2187 23.8253 25.312 23.4542 25.312 23.0175C25.312 22.3682 25.1177 21.8522 24.729 21.4696C24.3404 21.0869 23.7321 20.8956 22.9043 20.8956H20.689L21.1145 19.3535H22.9043C23.8681 19.3535 24.6629 19.5062 25.2887 19.8115C25.9144 20.1168 26.3808 20.5401 26.6878 21.0811C26.9949 21.6222 27.1484 22.2464 27.1484 22.9537C27.1484 23.5837 27.0221 24.1538 26.7694 24.664C26.5168 25.1741 26.1146 25.5896 25.5627 25.9104C25.0108 26.2312 24.2859 26.4186 23.3882 26.4728L23.3357 26.4844L27.1484 31.1281V31.2267H25.0205ZM28.7457 19.3535L28.3318 20.7971L22.2222 20.7623L22.6361 19.3535H28.7457Z" fill="#00B386"/>
</g>
<defs>
<clipPath id="clip0_1003_4133">
<rect width="50" height="50" fill="white"/>
</clipPath>
</defs>
</svg>
