<svg width="16" height="16" viewBox="0 0 16 16" fill="none" xmlns="http://www.w3.org/2000/svg">
<g clip-path="url(#clip0_1049_4975)">
<path d="M7.63511 6.64405L6.7565 7.52266M3.02179 11.184L1.83178 13.0541C1.62679 13.3763 1.6644 13.796 1.92338 14.0766V14.0766M3.02179 11.184L6.7565 7.52266M3.02179 11.184L4.77925 12.9416M4.77925 12.9416L2.90172 14.1933C2.59128 14.4002 2.17645 14.3508 1.92338 14.0766V14.0766M4.77925 12.9416L8.44073 9.28011M12.9075 2.22113L12.7291 2.04868C12.3393 1.67194 11.7204 1.6743 11.3336 2.05398L8.19371 5.1357C8.11476 5.21319 8.04523 5.30217 8.01499 5.40857C7.95188 5.63058 7.94473 5.94733 8.22093 6.13146C8.57242 6.36579 8.9532 6.18028 9.09965 6.05823L12.9075 2.22113ZM12.9075 2.22113L13.9956 1.16024C14.0511 1.10612 14.1119 1.05561 14.1857 1.03191C14.3396 0.982486 14.5829 0.969242 14.8114 1.15201C15.0466 1.34017 15.0142 1.63529 14.9418 1.83273C14.9104 1.91831 14.8517 1.98985 14.7868 2.05386L13.7709 3.0558M12.9075 2.22113L13.7709 3.0558M13.7709 3.0558V3.0558C14.0208 3.2973 14.0241 3.6967 13.7784 3.94241L8.44073 9.28011M6.7565 7.52266L8.44073 9.28011M1.92338 14.0766L1 15" stroke="#00B386"/>
</g>
<defs>
<clipPath id="clip0_1049_4975">
<rect width="16" height="16" fill="white"/>
</clipPath>
</defs>
</svg>
