<svg width="50" height="50" viewBox="0 0 50 50" fill="none" xmlns="http://www.w3.org/2000/svg">
<path fill-rule="evenodd" clip-rule="evenodd" d="M19.6083 24.667C20.773 23.7008 22.2952 23.1367 24.1245 23.1367C27.5796 23.1367 29.9834 25.6023 30.7389 28.6545C31.433 31.4584 30.7668 34.816 28.2872 37.4386C31.5772 38.2976 33.6298 39.809 34.8375 41.4544C36.1504 43.2433 36.4301 45.1454 36.2602 46.4156C36.2125 46.7716 35.905 47.0011 35.5833 47.0011H12.7242C12.4456 47.0011 12.2038 46.8346 12.098 46.5952C11.0151 44.1443 12.2701 42.0241 14.0076 40.4853C15.527 39.1397 17.5346 38.1132 19.1445 37.4872C17.1541 34.6446 16.5601 31.2453 17.2856 28.4578C17.6747 26.963 18.4484 25.6291 19.6083 24.667ZM18.4701 28.76C17.7961 31.3494 18.4228 34.6462 20.5412 37.3228C20.8089 37.6611 20.7058 38.2169 20.2292 38.3806C18.6258 38.9314 16.4032 39.9885 14.8231 41.3879C13.3351 42.7058 12.5538 44.1832 13.0943 45.7901H35.0813C35.0971 44.8169 34.8045 43.4696 33.848 42.1663C32.7358 40.6511 30.6908 39.149 27.0718 38.3987C26.5312 38.2866 26.3291 37.6034 26.7557 37.2272C29.4726 34.8315 30.2034 31.5789 29.5509 28.9427C28.897 26.3012 26.8904 24.3477 24.1245 24.3477C22.5618 24.3477 21.3231 24.8244 20.3938 25.5953C19.4596 26.3703 18.806 27.4697 18.4701 28.76Z" fill="#00B386"/>
<path fill-rule="evenodd" clip-rule="evenodd" d="M7.00246 13.0763C6.93316 13.2844 6.7344 13.4252 6.51014 13.4252H3.77821C3.27675 13.4252 3.06825 14.0512 3.47394 14.3387L5.68412 15.905C5.86555 16.0336 5.94147 16.2615 5.87217 16.4695L5.02795 19.0039C4.87299 19.4691 5.41885 19.856 5.82454 19.5685L8.03472 18.0021C8.21615 17.8735 8.46182 17.8735 8.64325 18.0021L10.8534 19.5685C11.2591 19.856 11.805 19.4691 11.65 19.0039L10.8058 16.4695C10.7365 16.2615 10.8124 16.0336 10.9938 15.905L13.204 14.3387C13.6097 14.0512 13.4012 13.4252 12.8998 13.4252H10.1678C9.94357 13.4252 9.74481 13.2844 9.67551 13.0763L8.8313 10.542C8.67634 10.0768 8.00163 10.0768 7.84667 10.542L7.00246 13.0763ZM10.7051 12.199L10.0269 10.163C9.49563 8.56806 7.18234 8.56805 6.65105 10.163L5.97286 12.199H3.77821C2.05892 12.199 1.34406 14.345 2.735 15.3307L4.51052 16.589L3.83233 18.625C3.30104 20.2199 5.17253 21.5463 6.56347 20.5605L8.33898 19.3022L10.1145 20.5605C11.5054 21.5463 13.3769 20.22 12.8456 18.625L12.1675 16.589L13.943 15.3307C15.3339 14.345 14.6191 12.199 12.8998 12.199H10.7051Z" fill="#00B386"/>
<path fill-rule="evenodd" clip-rule="evenodd" d="M41.0134 13.0763C40.9481 13.2844 40.7611 13.4252 40.55 13.4252H37.9788C37.5068 13.4252 37.3106 14.0512 37.6924 14.3387L39.7726 15.905C39.9433 16.0336 40.0148 16.2615 39.9496 16.4695L39.155 19.0039C39.0092 19.4691 39.5229 19.856 39.9047 19.5685L41.9849 18.0021C42.1557 17.8735 42.3869 17.8735 42.5576 18.0021L44.6378 19.5685C45.0196 19.856 45.5334 19.4691 45.3875 19.0039L44.593 16.4695C44.5278 16.2615 44.5992 16.0336 44.77 15.905L46.8501 14.3387C47.232 14.0512 47.0357 13.4252 46.5638 13.4252H43.9925C43.7815 13.4252 43.5944 13.2844 43.5292 13.0763L42.7346 10.542C42.5888 10.0768 41.9538 10.0768 41.8079 10.542L41.0134 13.0763ZM44.4982 12.199L43.8599 10.163C43.3599 8.56806 41.1827 8.56805 40.6826 10.163L40.0443 12.199H37.9788C36.3606 12.199 35.6878 14.345 36.9969 15.3307L38.668 16.589L38.0297 18.625C37.5297 20.2199 39.2911 21.5463 40.6002 20.5605L42.2713 19.3022L43.9423 20.5605C45.2515 21.5463 47.0129 20.22 46.5128 18.625L45.8745 16.589L47.5456 15.3307C48.8547 14.345 48.1819 12.199 46.5638 12.199H44.4982Z" fill="#00B386"/>
<path fill-rule="evenodd" clip-rule="evenodd" d="M23.623 8.8212C23.5555 9.02807 23.3618 9.16814 23.1433 9.16814H18.6484C18.1597 9.16814 17.9566 9.79055 18.3519 10.0764L21.9883 12.7061C22.1651 12.834 22.2391 13.0606 22.1716 13.2675L20.7826 17.5223C20.6316 17.9849 21.1635 18.3696 21.5589 18.0837L25.1953 15.454C25.3721 15.3262 25.6115 15.3262 25.7883 15.454L29.4247 18.0837C29.8201 18.3696 30.352 17.9849 30.201 17.5223L28.812 13.2675C28.7445 13.0606 28.8185 12.834 28.9953 12.7061L32.6317 10.0764C33.027 9.79055 32.8239 9.16814 32.3352 9.16814H27.8403C27.6218 9.16814 27.4281 9.02807 27.3606 8.8212L25.9716 4.56633C25.8206 4.10374 25.163 4.10374 25.012 4.56633L23.623 8.8212ZM28.3639 7.94876L27.1367 4.18952C26.619 2.6035 24.3646 2.60349 23.8469 4.18951L22.6197 7.94876H18.6484C16.9729 7.94876 16.2763 10.0827 17.6318 11.0629L20.8446 13.3863L19.6174 17.1455C19.0997 18.7315 20.9235 20.0504 22.279 19.0702L25.4918 16.7469L28.7046 19.0702C30.0601 20.0504 31.8839 18.7315 31.3662 17.1455L30.139 13.3863L33.3518 11.0629C34.7073 10.0827 34.0107 7.94876 32.3352 7.94876H28.3639Z" fill="#00B386"/>
</svg>
