<svg width="50" height="50" viewBox="0 0 50 50" fill="none" xmlns="http://www.w3.org/2000/svg">
<circle cx="25" cy="25" r="25" fill="#FF7777"/>
<path d="M23.9997 11.5353C24.4307 10.8216 25.5693 10.8216 26.0003 11.5353L39.8603 34.4866C40.2725 35.1691 39.7233 36 38.86 36H11.14C10.2767 36 9.72755 35.1691 10.1397 34.4866L23.9997 11.5353Z" fill="white"/>
<path d="M26.3814 17.4545L26.147 27.7244H23.8601L23.6328 17.4545H26.3814ZM25.0036 32.1562C24.5727 32.1562 24.2034 32.0047 23.8956 31.7017C23.5926 31.3987 23.4411 31.0294 23.4411 30.5938C23.4411 30.1676 23.5926 29.803 23.8956 29.5C24.2034 29.197 24.5727 29.0455 25.0036 29.0455C25.425 29.0455 25.7895 29.197 26.0973 29.5C26.4098 29.803 26.5661 30.1676 26.5661 30.5938C26.5661 30.8826 26.4927 31.1454 26.3459 31.3821C26.2038 31.6188 26.0144 31.8082 25.7777 31.9503C25.5457 32.0876 25.2876 32.1562 25.0036 32.1562Z" fill="#E14747"/>
</svg>
