<svg width="16" height="16" viewBox="0 0 16 16" fill="none" xmlns="http://www.w3.org/2000/svg">
<path d="M10.3705 3H5.51793C5.17908 3 4.90438 3.27469 4.90438 3.61355C4.90438 3.9524 4.62969 4.22709 4.29084 4.22709H2C1.44772 4.22709 1 4.67481 1 5.22709V12.7649C1 13.3172 1.44772 13.7649 2 13.7649H14C14.5523 13.7649 15 13.3172 15 12.7649V5.22709C15 4.67481 14.5523 4.22709 14 4.22709H11.5976C11.2588 4.22709 10.9841 3.9524 10.9841 3.61355C10.9841 3.27469 10.7094 3 10.3705 3Z" stroke="#00B386"/>
<circle cx="7.97116" cy="9.08054" r="2.62351" stroke="#00B386"/>
<circle cx="12.9916" cy="6.17909" r="0.669323" fill="#00B386"/>
</svg>
