<svg width="50" height="50" viewBox="0 0 50 50" fill="none" xmlns="http://www.w3.org/2000/svg">
<path fill-rule="evenodd" clip-rule="evenodd" d="M20.3924 29.1145C19.9336 25.8062 23.2464 23.4863 25.8506 24.7033C26.8715 25.1803 27.5979 26.3099 27.6929 27.3922C27.7392 27.9193 27.6319 28.3934 27.3802 28.7632C27.134 29.125 26.7073 29.4497 25.9918 29.6128C25.3766 29.753 24.7788 29.631 24.3667 29.3562C23.9709 29.0923 23.7468 28.6956 23.7889 28.1916C23.8212 27.8053 23.5342 27.466 23.1479 27.4337C22.7617 27.4014 22.4224 27.6884 22.3901 28.0747C22.3007 29.1444 22.8164 30.0095 23.588 30.5241C24.3434 31.0278 25.3404 31.2009 26.3037 30.9813C27.3146 30.751 28.0676 30.2481 28.5407 29.553C29.0083 28.8658 29.16 28.0536 29.0912 27.2695C28.956 25.7295 27.956 24.1377 26.4449 23.4316C22.7437 21.702 18.3745 25.0025 19.008 29.349L19.0127 29.3813L19.0204 29.413C19.9309 33.1714 23.0454 34.9229 26.0771 34.8551C29.0904 34.7877 32.1304 32.9167 32.8847 29.3947C32.9659 29.0157 32.7244 28.6426 32.3454 28.5615C31.9664 28.4803 31.5933 28.7217 31.5121 29.1007C30.9182 31.8738 28.5323 33.3962 26.0457 33.4518C23.5863 33.5068 21.1357 32.1208 20.3924 29.1145Z" fill="#00B386"/>
<path fill-rule="evenodd" clip-rule="evenodd" d="M14.0019 6.12906C12.4511 6.54606 11.2125 8.1216 10.8639 10.1208C10.7625 10.702 10.748 12.5453 10.748 24.854V38.9228L9.67226 38.9245C8.25971 38.9267 7.91133 39.0705 7.61805 39.7724C7.46572 40.1371 7.47153 40.3628 7.65187 41.0811C8.10088 42.8691 9.38699 44.2789 10.8447 44.5809C11.12 44.638 14.8877 44.6565 23.3547 44.6424L35.4707 44.6222L35.8841 44.4532C37.1708 43.9268 38.1542 42.7072 38.6263 41.0518L38.7922 40.4703L38.8124 26.1085L38.8326 11.7467H41.8533C45.0445 11.7467 45.1834 11.7332 45.5753 11.3853C45.7751 11.2078 45.9977 10.7009 45.9997 10.4189C46.0027 10.0024 45.7038 9.00656 45.3787 8.34973C44.821 7.22297 43.867 6.40565 42.7785 6.12219C42.1365 5.95491 14.6249 5.96148 14.0019 6.12906ZM39.4195 7.20146C38.8054 7.88116 38.4163 8.61175 38.1243 9.63304L37.9625 10.1992L37.9234 25.297L37.8844 40.3949L37.7101 40.9605C37.3373 42.171 36.6779 43.0493 35.8276 43.4679C34.8928 43.9281 33.8789 43.7749 33.0441 43.0473C32.4004 42.4863 31.914 41.5424 31.6942 40.428C31.5418 39.655 31.326 39.2966 30.8847 39.0829L30.554 38.9228H21.1026H11.6512L11.6718 24.5988C11.6911 11.184 11.7008 10.2459 11.8252 9.82176C12.1436 8.73653 12.8277 7.72256 13.5123 7.32134C14.2231 6.90486 13.5098 6.92592 27.0813 6.92049L39.6779 6.91543L39.4195 7.20146ZM43.0181 7.16923C43.8759 7.562 44.6754 8.64881 44.9772 9.83263C45.1294 10.4295 45.1265 10.508 44.9446 10.6899C44.7987 10.8357 44.693 10.8409 41.8165 10.8409H38.8395L38.8792 10.5578C39.189 8.35599 40.5422 6.84908 42.1242 6.94427C42.4131 6.96171 42.7497 7.04641 43.0181 7.16923ZM30.5458 39.9231C30.6222 39.9811 30.7272 40.301 30.8188 40.755C31.0036 41.6706 31.4194 42.5509 31.9952 43.2456L32.4183 43.7562L21.6775 43.7362L10.9367 43.7164L10.4959 43.5098C9.62274 43.1008 8.82852 42.0231 8.52611 40.8369C8.37393 40.2401 8.37687 40.1616 8.5588 39.9797C8.70834 39.8301 8.81041 39.8287 19.5658 39.8287C28.1341 39.8287 30.4479 39.8485 30.5458 39.9231Z" fill="#00B386" stroke="#00B386" stroke-width="0.3"/>
<path d="M24.4893 14.4139C24.4893 14.3449 24.5703 14.2318 24.6693 14.1627C24.8438 14.0409 24.9693 14.0371 28.8098 14.0371C32.6503 14.0371 32.7757 14.0409 32.9503 14.1627C33.1794 14.3226 33.1794 14.5053 32.9503 14.6652C32.7757 14.7869 32.6503 14.7908 28.8098 14.7908C24.9693 14.7908 24.8438 14.7869 24.6693 14.6652C24.5703 14.5961 24.4893 14.483 24.4893 14.4139Z" fill="#00B386"/>
<path fill-rule="evenodd" clip-rule="evenodd" d="M25.3547 13.7126C25.8946 13.6962 26.8933 13.6953 28.8101 13.6953C30.7268 13.6953 31.7255 13.6962 32.2654 13.7126C32.5319 13.7207 32.707 13.7329 32.8312 13.7554C32.9796 13.7824 33.0656 13.8261 33.1466 13.8826C33.2983 13.9884 33.465 14.1639 33.465 14.4147C33.465 14.6655 33.2983 14.841 33.1466 14.9469C33.0656 15.0034 32.9796 15.0471 32.8312 15.074C32.707 15.0966 32.5319 15.1087 32.2654 15.1168C31.7255 15.1332 30.7268 15.1341 28.8101 15.1341C26.8933 15.1341 25.8946 15.1332 25.3547 15.1168C25.0882 15.1087 24.9131 15.0966 24.7889 15.074C24.6405 15.0471 24.5545 15.0034 24.4735 14.9469C24.3909 14.8892 24.3183 14.8157 24.264 14.7399C24.2193 14.6776 24.147 14.5589 24.147 14.4147C24.147 14.2705 24.2193 14.1518 24.264 14.0896C24.3183 14.0137 24.3909 13.9402 24.4735 13.8826C24.5545 13.8261 24.6405 13.7824 24.7889 13.7554C24.9131 13.7329 25.0882 13.7207 25.3547 13.7126ZM25.0332 14.4147C25.1104 14.4213 25.2193 14.4273 25.3755 14.432C25.902 14.448 26.8864 14.449 28.8101 14.449C30.7338 14.449 31.7181 14.448 32.2446 14.432C32.4008 14.4273 32.5097 14.4213 32.5869 14.4147C32.5097 14.4081 32.4008 14.4022 32.2446 14.3974C31.7181 14.3815 30.7338 14.3805 28.8101 14.3805C26.8864 14.3805 25.902 14.3815 25.3755 14.3974C25.2193 14.4022 25.1104 14.4081 25.0332 14.4147Z" fill="#00B386"/>
<path fill-rule="evenodd" clip-rule="evenodd" d="M28.0558 10.9724C28.4251 10.956 29.108 10.9551 30.4187 10.9551C31.7295 10.9551 32.4124 10.956 32.7816 10.9724C32.9638 10.9805 33.0836 10.9927 33.1685 11.0152C33.2699 11.0421 33.3288 11.0858 33.3841 11.1423C33.4879 11.2482 33.6019 11.4237 33.6019 11.6745C33.6019 11.9253 33.4879 12.1008 33.3841 12.2066C33.3288 12.2631 33.2699 12.3068 33.1685 12.3338C33.0836 12.3563 32.9638 12.3685 32.7816 12.3766C32.4124 12.393 31.7295 12.3939 30.4187 12.3939C29.108 12.3939 28.4251 12.393 28.0558 12.3766C27.8736 12.3685 27.7539 12.3563 27.6689 12.3338C27.5675 12.3068 27.5086 12.2631 27.4533 12.2067C27.3968 12.149 27.3472 12.0755 27.31 11.9996C27.2795 11.9374 27.23 11.8187 27.23 11.6745C27.23 11.5303 27.2795 11.4116 27.31 11.3493C27.3472 11.2735 27.3968 11.2 27.4533 11.1423C27.5086 11.0858 27.5675 11.0421 27.6689 11.0152C27.7539 10.9927 27.8736 10.9805 28.0558 10.9724ZM27.836 11.6745C27.8888 11.6811 27.9633 11.687 28.0701 11.6918C28.4301 11.7077 29.1032 11.7087 30.4187 11.7087C31.7342 11.7087 32.4073 11.7077 32.7674 11.6918C32.8741 11.687 32.9486 11.6811 33.0014 11.6745C32.9486 11.6679 32.8741 11.6619 32.7674 11.6572C32.4073 11.6412 31.7342 11.6402 30.4187 11.6402C29.1032 11.6402 28.4301 11.6412 28.0701 11.6572C27.9633 11.6619 27.8888 11.6679 27.836 11.6745Z" fill="#00B386"/>
<path d="M28.0701 11.6918C27.9633 11.687 27.8888 11.6811 27.836 11.6745C27.8888 11.6679 27.9633 11.6619 28.0701 11.6572C28.4301 11.6412 29.1032 11.6402 30.4187 11.6402C31.7342 11.6402 32.4073 11.6412 32.7674 11.6572C32.8741 11.6619 32.9486 11.6679 33.0014 11.6745C32.9486 11.6811 32.8741 11.687 32.7674 11.6918C32.4073 11.7077 31.7342 11.7087 30.4187 11.7087C29.1032 11.7087 28.4301 11.7077 28.0701 11.6918Z" fill="#00B386"/>
<path d="M24.4893 16.6737C24.4893 16.6046 24.5703 16.4916 24.6693 16.4225C24.8438 16.3007 24.9693 16.2969 28.8098 16.2969C32.6503 16.2969 32.7757 16.3007 32.9503 16.4225C33.1794 16.5824 33.1794 16.765 32.9503 16.9249C32.7757 17.0467 32.6503 17.0505 28.8098 17.0505C24.9693 17.0505 24.8438 17.0467 24.6693 16.9249C24.5703 16.8558 24.4893 16.7428 24.4893 16.6737Z" fill="#00B386"/>
<path fill-rule="evenodd" clip-rule="evenodd" d="M25.3547 15.9724C25.8946 15.956 26.8933 15.9551 28.8101 15.9551C30.7268 15.9551 31.7255 15.956 32.2654 15.9724C32.5319 15.9805 32.707 15.9927 32.8312 16.0152C32.9796 16.0421 33.0656 16.0858 33.1466 16.1423C33.2983 16.2482 33.465 16.4237 33.465 16.6745C33.465 16.9253 33.2983 17.1008 33.1466 17.2066C33.0656 17.2631 32.9796 17.3068 32.8312 17.3338C32.707 17.3563 32.5319 17.3685 32.2654 17.3766C31.7255 17.393 30.7268 17.3939 28.8101 17.3939C26.8933 17.3939 25.8946 17.393 25.3547 17.3766C25.0882 17.3685 24.9131 17.3563 24.7889 17.3338C24.6405 17.3068 24.5545 17.2631 24.4735 17.2067C24.3909 17.149 24.3183 17.0755 24.264 16.9996C24.2193 16.9374 24.147 16.8187 24.147 16.6745C24.147 16.5303 24.2193 16.4116 24.264 16.3493C24.3183 16.2735 24.3909 16.2 24.4735 16.1423C24.5545 16.0858 24.6405 16.0421 24.7889 16.0152C24.9131 15.9927 25.0882 15.9805 25.3547 15.9724ZM25.0332 16.6745C25.1104 16.6811 25.2193 16.687 25.3755 16.6918C25.902 16.7077 26.8864 16.7087 28.8101 16.7087C30.7338 16.7087 31.7181 16.7077 32.2446 16.6918C32.4008 16.687 32.5097 16.6811 32.5869 16.6745C32.5097 16.6679 32.4008 16.6619 32.2446 16.6572C31.7181 16.6412 30.7338 16.6402 28.8101 16.6402C26.8864 16.6402 25.902 16.6412 25.3755 16.6572C25.2193 16.6619 25.1104 16.6679 25.0332 16.6745Z" fill="#00B386"/>
<path d="M8.66602 33.3184V23.7115C8.66602 23.6659 8.70298 23.6289 8.74858 23.6289H14.4046C14.4502 23.6289 14.4871 23.6659 14.4871 23.7115V33.3243C14.4871 33.3848 14.4241 33.4248 14.3693 33.3989L11.4692 32.0272C11.4458 32.0162 11.4186 32.0167 11.3957 32.0287L8.78682 33.3915C8.73184 33.4203 8.66602 33.3804 8.66602 33.3184Z" fill="white"/>
<path fill-rule="evenodd" clip-rule="evenodd" d="M9.36803 24.3314V32.2969L11.0709 31.4073C11.0709 31.4073 11.0709 31.4073 11.0709 31.4073C11.2887 31.2935 11.5473 31.2884 11.7695 31.3935L11.7695 31.3935L13.7855 32.347V24.3314H9.36803ZM8.46203 32.7701C8.46216 32.7701 8.46229 32.77 8.46243 32.7699L8.46203 32.7701ZM7.96436 23.7121C7.96436 23.2789 8.31555 22.9277 8.74876 22.9277H14.4048C14.838 22.9277 15.1892 23.2789 15.1892 23.7121V33.3249C15.1892 33.9006 14.5897 34.2801 14.0694 34.034L11.4478 32.7941L9.11196 34.0143C8.58971 34.2871 7.96436 33.9082 7.96436 33.319V23.7121Z" fill="#00B386"/>
<path d="M10.8387 11.3125C11.2654 10.8359 12.0115 10.8359 12.4382 11.3125L13.6093 12.6207C13.8267 12.8636 14.1428 12.9945 14.4683 12.9765L16.2214 12.8796C16.8601 12.8443 17.3877 13.3719 17.3524 14.0106L17.2555 15.7637C17.2375 16.0892 17.3684 16.4052 17.6113 16.6227L18.9195 17.7938C19.3961 18.2204 19.3961 18.9666 18.9195 19.3933L17.6113 20.5644C17.3684 20.7818 17.2375 21.0979 17.2555 21.4234L17.3524 23.1765C17.3877 23.8152 16.8601 24.3428 16.2214 24.3075L14.4683 24.2106C14.1428 24.1926 13.8267 24.3235 13.6093 24.5664L12.4382 25.8745C12.0115 26.3511 11.2654 26.3511 10.8387 25.8745L9.66761 24.5664C9.45016 24.3235 9.13412 24.1926 8.80861 24.2106L7.05551 24.3075C6.41681 24.3428 5.88919 23.8152 5.9245 23.1765L6.02141 21.4234C6.03941 21.0979 5.9085 20.7818 5.6656 20.5644L4.35745 19.3933C3.88085 18.9666 3.88085 18.2204 4.35745 17.7938L5.6656 16.6227C5.9085 16.4052 6.03941 16.0892 6.02141 15.7637L5.9245 14.0106C5.88919 13.3719 6.41681 12.8443 7.05551 12.8796L8.80861 12.9765C9.13412 12.9945 9.45016 12.8636 9.66761 12.6207L10.8387 11.3125Z" fill="white"/>
<path fill-rule="evenodd" clip-rule="evenodd" d="M11.6385 12.5236L10.7134 13.5569C10.2116 14.1175 9.4823 14.4196 8.73113 14.378L7.3464 14.3015L7.42295 15.6862C7.46448 16.4374 7.16238 17.1667 6.60185 17.6685L5.56857 18.5935L6.60185 19.5185C7.16238 20.0203 7.46448 20.7497 7.42295 21.5009L7.3464 22.8856L8.73113 22.809C9.4823 22.7675 10.2116 23.0696 10.7134 23.6301L11.6385 24.6634L12.5635 23.6301C13.0653 23.0696 13.7946 22.7675 14.5458 22.809L15.9305 22.8856L15.854 21.5009C15.8124 20.7497 16.1145 20.0203 16.6751 19.5185L17.7083 18.5935L16.6751 17.6685C16.1145 17.1667 15.8124 16.4374 15.854 15.6862L15.9305 14.3015L14.5458 14.378C13.7946 14.4196 13.0653 14.1175 12.5635 13.5569L11.6385 12.5236ZM12.4382 11.3125C12.0115 10.8359 11.2654 10.8359 10.8387 11.3125L9.66761 12.6207C9.45016 12.8636 9.13412 12.9945 8.80861 12.9765L7.05551 12.8796C6.41681 12.8443 5.88919 13.3719 5.9245 14.0106L6.02141 15.7637C6.03941 16.0892 5.9085 16.4052 5.6656 16.6227L4.35745 17.7938C3.88085 18.2204 3.88085 18.9666 4.35745 19.3933L5.6656 20.5644C5.9085 20.7818 6.03941 21.0979 6.02141 21.4234L5.9245 23.1765C5.88919 23.8152 6.41681 24.3428 7.05551 24.3075L8.80861 24.2106C9.13412 24.1926 9.45016 24.3235 9.66761 24.5664L10.8387 25.8745C11.2654 26.3511 12.0115 26.3511 12.4382 25.8745L13.6093 24.5664C13.8267 24.3235 14.1428 24.1926 14.4683 24.2106L16.2214 24.3075C16.8601 24.3428 17.3877 23.8152 17.3524 23.1765L17.2555 21.4234C17.2375 21.0979 17.3684 20.7818 17.6113 20.5644L18.9195 19.3933C19.3961 18.9666 19.3961 18.2204 18.9195 17.7938L17.6113 16.6227C17.3684 16.4052 17.2375 16.0892 17.2555 15.7637L17.3524 14.0106C17.3877 13.3719 16.8601 12.8443 16.2214 12.8796L14.4683 12.9765C14.1428 12.9945 13.8267 12.8636 13.6093 12.6207L12.4382 11.3125Z" fill="#00B386"/>
<path d="M14.4458 18.5925C14.4458 20.143 13.1889 21.3999 11.6384 21.3999C10.0879 21.3999 8.83105 20.143 8.83105 18.5925C8.83105 17.0421 10.0879 15.7852 11.6384 15.7852C13.1889 15.7852 14.4458 17.0421 14.4458 18.5925Z" fill="white"/>
<path fill-rule="evenodd" clip-rule="evenodd" d="M11.6384 19.9962C12.4136 19.9962 13.0421 19.3677 13.0421 18.5925C13.0421 17.8173 12.4136 17.1888 11.6384 17.1888C10.8632 17.1888 10.2347 17.8173 10.2347 18.5925C10.2347 19.3677 10.8632 19.9962 11.6384 19.9962ZM11.6384 21.3999C13.1889 21.3999 14.4458 20.143 14.4458 18.5925C14.4458 17.0421 13.1889 15.7852 11.6384 15.7852C10.0879 15.7852 8.83105 17.0421 8.83105 18.5925C8.83105 20.143 10.0879 21.3999 11.6384 21.3999Z" fill="#00B386"/>
</svg>
