<svg width="47" height="44" viewBox="0 0 47 44" fill="none" xmlns="http://www.w3.org/2000/svg">
<path fill-rule="evenodd" clip-rule="evenodd" d="M17.6083 21.667C18.773 20.7008 20.2952 20.1367 22.1245 20.1367C25.5796 20.1367 27.9834 22.6023 28.7389 25.6545C29.433 28.4584 28.7668 31.816 26.2872 34.4386C29.5772 35.2976 31.6298 36.809 32.8375 38.4544C34.1504 40.2433 34.4301 42.1454 34.2602 43.4156C34.2125 43.7716 33.905 44.0011 33.5833 44.0011H10.7242C10.4456 44.0011 10.2038 43.8346 10.098 43.5952C9.01506 41.1443 10.2701 39.0241 12.0076 37.4853C13.527 36.1397 15.5346 35.1132 17.1445 34.4872C15.1541 31.6446 14.5601 28.2453 15.2856 25.4578C15.6747 23.963 16.4484 22.6291 17.6083 21.667ZM16.4701 25.76C15.7961 28.3494 16.4228 31.6462 18.5412 34.3228C18.8089 34.6611 18.7058 35.2169 18.2292 35.3806C16.6258 35.9314 14.4032 36.9885 12.8231 38.3879C11.3351 39.7058 10.5538 41.1832 11.0943 42.7901H33.0813C33.0971 41.8169 32.8045 40.4696 31.848 39.1663C30.7358 37.6511 28.6908 36.149 25.0718 35.3987C24.5312 35.2866 24.3291 34.6034 24.7557 34.2272C27.4726 31.8315 28.2034 28.5789 27.5509 25.9427C26.897 23.3012 24.8904 21.3477 22.1245 21.3477C20.5618 21.3477 19.3231 21.8244 18.3938 22.5953C17.4596 23.3703 16.806 24.4697 16.4701 25.76Z" fill="#00B386"/>
<path fill-rule="evenodd" clip-rule="evenodd" d="M5.00246 10.0763C4.93316 10.2844 4.7344 10.4252 4.51014 10.4252H1.77821C1.27675 10.4252 1.06825 11.0512 1.47394 11.3387L3.68412 12.905C3.86555 13.0336 3.94147 13.2615 3.87217 13.4695L3.02795 16.0039C2.87299 16.4691 3.41885 16.856 3.82454 16.5685L6.03472 15.0021C6.21615 14.8735 6.46182 14.8735 6.64325 15.0021L8.85343 16.5685C9.25912 16.856 9.80498 16.4691 9.65002 16.0039L8.8058 13.4695C8.7365 13.2615 8.81242 13.0336 8.99385 12.905L11.204 11.3387C11.6097 11.0512 11.4012 10.4252 10.8998 10.4252H8.16783C7.94357 10.4252 7.74481 10.2844 7.67551 10.0763L6.8313 7.54196C6.67634 7.07676 6.00163 7.07676 5.84667 7.54196L5.00246 10.0763ZM8.70511 9.19898L8.02692 7.16302C7.49563 5.56806 5.18234 5.56805 4.65105 7.16302L3.97286 9.19898H1.77821C0.0589194 9.19898 -0.65594 11.345 0.735003 12.3307L2.51052 13.589L1.83233 15.625C1.30104 17.2199 3.17253 18.5463 4.56347 17.5605L6.33898 16.3022L8.1145 17.5605C9.50543 18.5463 11.3769 17.22 10.8456 15.625L10.1675 13.589L11.943 12.3307C13.3339 11.345 12.6191 9.19898 10.8998 9.19898H8.70511Z" fill="#00B386"/>
<path fill-rule="evenodd" clip-rule="evenodd" d="M39.0134 10.0763C38.9481 10.2844 38.7611 10.4252 38.55 10.4252H35.9788C35.5068 10.4252 35.3106 11.0512 35.6924 11.3387L37.7726 12.905C37.9433 13.0336 38.0148 13.2615 37.9496 13.4695L37.155 16.0039C37.0092 16.4691 37.5229 16.856 37.9047 16.5685L39.9849 15.0021C40.1557 14.8735 40.3869 14.8735 40.5576 15.0021L42.6378 16.5685C43.0196 16.856 43.5334 16.4691 43.3875 16.0039L42.593 13.4695C42.5278 13.2615 42.5992 13.0336 42.77 12.905L44.8501 11.3387C45.232 11.0512 45.0357 10.4252 44.5638 10.4252H41.9925C41.7815 10.4252 41.5944 10.2844 41.5292 10.0763L40.7346 7.54196C40.5888 7.07676 39.9538 7.07676 39.8079 7.54196L39.0134 10.0763ZM42.4982 9.19898L41.8599 7.16302C41.3599 5.56806 39.1827 5.56805 38.6826 7.16302L38.0443 9.19898H35.9788C34.3606 9.19898 33.6878 11.345 34.9969 12.3307L36.668 13.589L36.0297 15.625C35.5297 17.2199 37.2911 18.5463 38.6002 17.5605L40.2713 16.3022L41.9423 17.5605C43.2515 18.5463 45.0129 17.22 44.5128 15.625L43.8745 13.589L45.5456 12.3307C46.8547 11.345 46.1819 9.19898 44.5638 9.19898H42.4982Z" fill="#00B386"/>
<path fill-rule="evenodd" clip-rule="evenodd" d="M21.623 5.8212C21.5555 6.02807 21.3618 6.16814 21.1433 6.16814H16.6484C16.1597 6.16814 15.9566 6.79055 16.3519 7.07644L19.9883 9.7061C20.1651 9.83396 20.2391 10.0606 20.1716 10.2675L18.7826 14.5223C18.6316 14.9849 19.1635 15.3696 19.5589 15.0837L23.1953 12.454C23.3721 12.3262 23.6115 12.3262 23.7883 12.454L27.4247 15.0837C27.8201 15.3696 28.352 14.9849 28.201 14.5223L26.812 10.2675C26.7445 10.0606 26.8185 9.83396 26.9953 9.7061L30.6317 7.07644C31.027 6.79055 30.8239 6.16814 30.3352 6.16814H25.8403C25.6218 6.16814 25.4281 6.02807 25.3606 5.8212L23.9716 1.56633C23.8206 1.10374 23.163 1.10374 23.012 1.56633L21.623 5.8212ZM26.3639 4.94876L25.1367 1.18952C24.619 -0.396503 22.3646 -0.396507 21.8469 1.18951L20.6197 4.94876H16.6484C14.9729 4.94876 14.2763 7.08273 15.6318 8.06295L18.8446 10.3863L17.6174 14.1455C17.0997 15.7315 18.9235 17.0504 20.279 16.0702L23.4918 13.7469L26.7046 16.0702C28.0601 17.0504 29.8839 15.7315 29.3662 14.1455L28.139 10.3863L31.3518 8.06295C32.7073 7.08273 32.0107 4.94876 30.3352 4.94876H26.3639Z" fill="#00B386"/>
</svg>
