<svg width="14" height="14" viewBox="0 0 14 14" fill="none" xmlns="http://www.w3.org/2000/svg">
<path d="M13.5706 6.57118C13.3342 6.57118 13.1418 6.76301 13.1418 7V13.1424H0.85758V7C0.85758 6.76301 0.665768 6.57118 0.42879 6.57118C0.191812 6.57118 0 6.76301 0 7V13.5712C0 13.8079 0.191812 14 0.42879 14H13.5712C13.8079 14 14 13.8079 14 13.5712V7C13.9994 6.76301 13.8073 6.57118 13.5706 6.57118ZM3.70589 4.1518C3.81566 4.1518 3.92543 4.11006 4.00919 4.0263L6.57135 1.46398V10.2862C6.57135 10.5229 6.76316 10.715 7.00014 10.715C7.23684 10.715 7.42893 10.5229 7.42893 10.2862V1.46398L9.99939 4.03488C10.0831 4.11864 10.1929 4.16038 10.303 4.16038C10.4125 4.16038 10.5225 4.11864 10.6063 4.03488C10.7738 3.86764 10.7738 3.59606 10.6063 3.42853L7.30373 0.125786C7.26342 0.0857634 7.21568 0.054317 7.16308 0.0323044C7.1608 0.0314468 7.15851 0.0311609 7.15679 0.0303033C7.10848 0.0111495 7.05589 0 7.00043 0C6.94497 0 6.89237 0.0114354 6.84378 0.0303033C6.84178 0.0311609 6.83949 0.0314468 6.83749 0.0323044C6.78432 0.054317 6.73658 0.0860492 6.69656 0.126072L3.40259 3.41995C3.23508 3.58748 3.23508 3.85906 3.40259 4.0263C3.48635 4.11006 3.59612 4.1518 3.70589 4.1518Z" fill="#00B386"/>
</svg>
